<svg xmlns="http://www.w3.org/2000/svg" version="1.1" width="324" height="355">
<path d="M0 0 C2.54653376 1.39689793 5.06211194 2.84076347 7.57666016 4.29443359 C34.56780729 19.41047811 64.81340161 32.49102252 95.47509766 37.80615234 C96.20849365 37.93328613 96.94188965 38.06041992 97.69750977 38.19140625 C99.68352572 38.52070095 101.67492372 38.81706657 103.66650391 39.11083984 C107.4015724 40.12044018 108.55614957 40.93258229 110.88916016 43.98193359 C111.39086914 47.23632813 111.39086914 47.23632813 111.38525391 51.11474609 C111.38802338 51.81526596 111.39079285 52.51578583 111.39364624 53.23753357 C111.3943077 55.52809453 111.36269845 57.81667483 111.32666016 60.10693359 C111.31643326 61.28508133 111.31643326 61.28508133 111.30599976 62.48703003 C110.76334939 122.87165854 93.75048574 182.1288009 50.88916016 225.98193359 C36.70570334 239.83348424 14.18933975 258.10239981 -6.61083984 259.60693359 C-32.13916206 257.8431586 -58.63900121 233.02032252 -74.61474609 214.97412109 C-110.79110108 171.60778632 -124.00681837 115.58470644 -124.54833984 60.04443359 C-124.56064636 59.32348511 -124.57295288 58.60253662 -124.58563232 57.85974121 C-124.61511324 55.8073753 -124.61583536 53.7571081 -124.60693359 51.70458984 C-124.60878662 50.52646729 -124.61063965 49.34834473 -124.61254883 48.13452148 C-123.99985802 44.28455732 -122.92243975 42.65408783 -120.11083984 39.98193359 C-117.83789062 39.11401367 -117.83789062 39.11401367 -115.30615234 38.75146484 C-113.8653833 38.51520386 -113.8653833 38.51520386 -112.39550781 38.27416992 C-111.35281738 38.11585693 -110.31012695 37.95754395 -109.23583984 37.79443359 C-76.13408533 31.93991678 -45.23132556 17.47657874 -15.89208984 1.50683594 C-10.02903377 -1.6689861 -6.30609961 -3.04145678 0 0 Z M-12.20068359 20.65771484 C-40.61365525 35.77996267 -69.72600824 48.12548133 -101.26318359 55.07177734 C-104.87424778 55.57022681 -104.87424778 55.57022681 -106.11083984 56.98193359 C-109.81199732 104.59874801 -94.27373696 161.69362747 -64.11083984 198.98193359 C-50.70812593 214.63560596 -36.12588386 226.66828228 -18.04833984 236.48193359 C-17.42934814 236.82039307 -16.81035645 237.15885254 -16.17260742 237.50756836 C-10.31010335 240.61766126 -10.31010335 240.61766126 -3.89208984 240.45068359 C34.63196048 224.09115537 60.3023237 192.53330131 75.95166016 154.54443359 C82.71970441 137.41565671 87.02878175 119.96976597 89.76416016 101.79443359 C89.86779877 101.10741364 89.97143738 100.42039368 90.07821655 99.71255493 C91.8551074 87.7294531 93.06603953 75.73114741 92.95166016 63.60693359 C92.94263672 62.34107422 92.93361328 61.07521484 92.92431641 59.77099609 C92.91271484 58.85060547 92.90111328 57.93021484 92.88916016 56.98193359 C88.46601161 55.40485741 84.01058418 54.2451332 79.45629883 53.13183594 C50.42319113 45.9492494 23.47040482 33.94965161 -2.77099609 19.74755859 C-7.44924852 17.2743772 -7.6293308 18.19928495 -12.20068359 20.65771484 Z " fill="#C12638" transform="translate(167.11083984375,90.01806640625)"/>
<path d="M0 0 C0.99 0.495 0.99 0.495 2 1 C1.34253808 15.33266988 -2.07582999 29.47584778 -6.125 43.1875 C-6.37854248 44.0549585 -6.63208496 44.92241699 -6.89331055 45.81616211 C-7.13734619 46.6128833 -7.38138184 47.40960449 -7.6328125 48.23046875 C-7.84824707 48.93582764 -8.06368164 49.64118652 -8.28564453 50.36791992 C-9 52 -9 52 -11 53 C-13.45518831 53.13216527 -15.88686876 53.2097289 -18.34375 53.24609375 C-19.83203738 53.27902092 -21.32031849 53.31223275 -22.80859375 53.34570312 C-25.15897459 53.39320297 -27.50932795 53.43765537 -29.85986328 53.47680664 C-32.1255912 53.51642722 -34.3908039 53.5679826 -36.65625 53.62109375 C-37.36148804 53.6295079 -38.06672607 53.63792206 -38.79333496 53.64659119 C-42.84520556 53.64173176 -42.84520556 53.64173176 -46 56 C-46.16677282 59.58343976 -46.16677282 59.58343976 -46 63 C-40.04344459 65.57072391 -34.0030173 65.44470269 -27.625 65.625 C-26.50738281 65.66367188 -25.38976562 65.70234375 -24.23828125 65.7421875 C-21.49234839 65.83606555 -18.74641524 65.92174911 -16 66 C-16.625 68.375 -16.625 68.375 -18 72 C-18.42792847 73.2852356 -18.42792847 73.2852356 -18.86450195 74.59643555 C-20.2468358 77.77503528 -21.39004885 79.69377205 -24 82 C-29.73689734 83.28919909 -35.34050561 83.04527305 -41.1875 82.8125 C-43.54189503 82.74586391 -45.89435492 82.69384345 -48.24958801 82.670578 C-49.71035647 82.65352273 -51.17111029 82.61016168 -52.63017273 82.53755188 C-54.87036764 82.43929676 -54.87036764 82.43929676 -58 83 C-60.07514839 85.50788805 -61.03106211 86.91282615 -60.9375 90.1875 C-59.68363445 92.61164007 -58.50640178 92.97852923 -56 94 C-53.68607335 94.36097744 -53.68607335 94.36097744 -51.234375 94.4140625 C-50.34492188 94.45273437 -49.45546875 94.49140625 -48.5390625 94.53125 C-47.61867188 94.5621875 -46.69828125 94.593125 -45.75 94.625 C-44.81414062 94.66367187 -43.87828125 94.70234375 -42.9140625 94.7421875 C-40.60956946 94.83624844 -38.30507987 94.92189399 -36 95 C-36 99.15305232 -37.77158479 100.21301142 -40.57080078 103.09008789 C-41.55669189 104.06643188 -41.55669189 104.06643188 -42.5625 105.0625 C-43.23780762 105.7320874 -43.91311523 106.4016748 -44.60888672 107.09155273 C-55.42257749 117.53291958 -70.3119233 128.70910664 -85.70214844 130.06469727 C-89.65692675 129.95334832 -92.71705951 128.47898656 -96.1875 126.6875 C-97.28215576 126.14488525 -97.28215576 126.14488525 -98.39892578 125.59130859 C-130.62655972 109.08857367 -150.32234854 79.13956469 -162.22265625 45.8828125 C-162.97208558 43.10352182 -163.16360376 40.86042708 -163 38 C-140.9125026 33.03265617 -119.02077077 33.27641754 -96.734375 37.05078125 C-69.35383363 41.35072303 -43.89554989 37.97259457 -21.0625 22.0625 C-12.82080075 15.7360382 -6.13809954 8.34860484 0 0 Z " fill="#CB2E40" transform="translate(245,187)"/>
<path d="M0 0 C2.54653376 1.39689793 5.06211194 2.84076347 7.57666016 4.29443359 C34.56780729 19.41047811 64.81340161 32.49102252 95.47509766 37.80615234 C96.20849365 37.93328613 96.94188965 38.06041992 97.69750977 38.19140625 C99.68352572 38.52070095 101.67492372 38.81706657 103.66650391 39.11083984 C107.4015724 40.12044018 108.55614957 40.93258229 110.88916016 43.98193359 C111.39086914 47.23632813 111.39086914 47.23632813 111.38525391 51.11474609 C111.38802338 51.81526596 111.39079285 52.51578583 111.39364624 53.23753357 C111.3943077 55.52809453 111.36269845 57.81667483 111.32666016 60.10693359 C111.31643326 61.28508133 111.31643326 61.28508133 111.30599976 62.48703003 C111.00419081 96.07149334 105.85846817 130.83261806 92.88916016 161.98193359 C91.81712539 158.30659277 92.13392535 156.71982439 93.63916016 153.16943359 C95.8864469 147.39623144 97.08079317 141.62819811 98.17822266 135.56005859 C98.88916016 131.98193359 98.88916016 131.98193359 99.94775391 128.35693359 C101.0020694 124.57714693 101.26015129 121.11360171 101.44775391 117.21630859 C101.84989294 114.26966152 102.51903132 111.69880739 103.35400391 108.85302734 C104.9986255 103.00603084 105.61664493 97.34044162 106.01416016 91.29443359 C106.09126221 90.22588135 106.16836426 89.1573291 106.24780273 88.05639648 C106.78252952 80.34944203 107.2149387 72.63635818 107.57666016 64.91943359 C107.62516113 63.93950439 107.67366211 62.9595752 107.72363281 61.94995117 C107.94645455 56.48228511 107.73642142 51.39039081 106.88916016 45.98193359 C106.22916016 45.98193359 105.56916016 45.98193359 104.88916016 45.98193359 C104.55916016 45.32193359 104.22916016 44.66193359 103.88916016 43.98193359 C101.46515561 43.46035053 99.08656994 43.04178031 96.63916016 42.66943359 C90.11269664 41.56352428 84.2680141 39.84513491 78.12744141 37.31396484 C74.60285736 35.8641661 71.04303611 34.56927804 67.45166016 33.29443359 C66.33919922 32.89869141 65.22673828 32.50294922 64.08056641 32.09521484 C63.02740234 31.72783203 61.97423828 31.36044922 60.88916016 30.98193359 C59.3596875 30.44632813 59.3596875 30.44632813 57.79931641 29.89990234 C54.31554242 28.80099377 50.848674 28.17113227 47.25634766 27.54443359 C44.88822491 26.98171136 43.01218294 26.15595541 40.88916016 24.98193359 C40.55916016 25.64193359 40.22916016 26.30193359 39.88916016 26.98193359 C39.55916016 25.99193359 39.22916016 25.00193359 38.88916016 23.98193359 C37.24169069 23.20726798 35.58550415 22.44581535 33.890625 21.78125 C30.56070546 20.45139436 27.39847601 18.78821838 24.20166016 17.16943359 C22.794117 16.46108251 21.38656483 15.75274935 19.97900391 15.04443359 C19.28919434 14.69638672 18.59938477 14.34833984 17.88867188 13.98974609 C15.01738296 12.54253234 12.1408071 11.10596141 9.26416016 9.66943359 C6.43728425 8.25599564 3.628647 6.84062697 0.85009766 5.33349609 C-2.03076169 4.01848642 -3.74055349 3.59949614 -6.86083984 3.66943359 C-7.61880859 3.67330078 -8.37677734 3.67716797 -9.15771484 3.68115234 C-11.34386051 3.82079261 -11.34386051 3.82079261 -13.11083984 5.98193359 C-13.81208984 6.25005859 -14.51333984 6.51818359 -15.23583984 6.79443359 C-17.80574375 7.85591564 -19.80070789 9.02759223 -22.11083984 10.54443359 C-25.1813753 12.52245644 -27.51441256 13.31943383 -31.11083984 13.98193359 C-31.99126953 14.58650391 -32.87169922 15.19107422 -33.77880859 15.81396484 C-37.35727118 18.14227286 -40.82313994 19.62065707 -44.79833984 21.10693359 C-48.46129923 22.49522724 -51.82696755 23.7926854 -55.11083984 25.98193359 C-56.7226583 26.50372567 -58.3498227 26.97934996 -59.98583984 27.41943359 C-63.8086697 28.51718705 -66.72041485 29.89551821 -70.11083984 31.98193359 C-75.33727358 33.98291108 -80.73170043 35.45459245 -86.11083984 36.98193359 C-86.80983398 37.18391357 -87.50882813 37.38589355 -88.22900391 37.59399414 C-90.50042055 38.25020891 -92.77420801 38.89769737 -95.04833984 39.54443359 C-95.80824219 39.76550781 -96.56814453 39.98658203 -97.35107422 40.21435547 C-101.04563796 41.25867707 -104.61592063 42.1131694 -108.43505859 42.54443359 C-113.41276907 43.13689223 -117.48202444 44.35311819 -121.11083984 47.98193359 C-121.29886931 50.7349118 -121.3663632 53.38530214 -121.34130859 56.13818359 C-121.34085037 56.95508667 -121.34039215 57.77198975 -121.33992004 58.61364746 C-121.33689412 60.34872889 -121.32899772 62.08380752 -121.31665039 63.81884766 C-121.29860326 66.44362297 -121.29613937 69.06804072 -121.29638672 71.69287109 C-121.39336427 87.07215832 -121.39336427 87.07215832 -118.11083984 101.98193359 C-117.51571889 105.27906594 -117.09951276 108.59678542 -116.67333984 111.91943359 C-115.6302433 119.72427412 -114.30993757 127.37119508 -112.56396484 135.04833984 C-112.12411185 137.89600878 -112.32796765 139.28999645 -113.11083984 141.98193359 C-119.87761498 116.06409997 -124.25938138 90.07849152 -124.40600586 63.25219727 C-124.417661 61.76772636 -124.43831917 60.28330152 -124.4675293 58.79907227 C-124.51014347 56.62146417 -124.52634549 54.44506243 -124.53662109 52.26708984 C-124.55120361 50.98713135 -124.56578613 49.70717285 -124.58081055 48.38842773 C-124.02420248 44.35395898 -123.07160527 42.74463643 -120.11083984 39.98193359 C-117.83789062 39.11401367 -117.83789062 39.11401367 -115.30615234 38.75146484 C-113.8653833 38.51520386 -113.8653833 38.51520386 -112.39550781 38.27416992 C-111.35281738 38.11585693 -110.31012695 37.95754395 -109.23583984 37.79443359 C-76.13408533 31.93991678 -45.23132556 17.47657874 -15.89208984 1.50683594 C-10.02903377 -1.6689861 -6.30609961 -3.04145678 0 0 Z " fill="#5E0814" transform="translate(167.11083984375,90.01806640625)"/>
<path d="M0 0 C4.73280832 6.26777318 5.77740761 11.30595119 5 19 C3.43263757 25.02587312 -0.10427226 28.74341805 -5.36328125 31.93359375 C-11.28838876 34.32997056 -17.37656869 33.82589504 -23.375 31.9375 C-27.69133181 28.75163605 -31.28620739 25.14137782 -33 20 C-33.72530305 13.0060063 -33.70271278 7.39129207 -29.4140625 1.6171875 C-21.13149616 -7.85513975 -9.45646378 -7.91703944 0 0 Z " fill="#C82A3C" transform="translate(173,44)"/>
<path d="M0 0 C0.99 0.495 0.99 0.495 2 1 C1.34253808 15.33266988 -2.07582999 29.47584778 -6.125 43.1875 C-6.37854248 44.0549585 -6.63208496 44.92241699 -6.89331055 45.81616211 C-7.13734619 46.6128833 -7.38138184 47.40960449 -7.6328125 48.23046875 C-7.84824707 48.93582764 -8.06368164 49.64118652 -8.28564453 50.36791992 C-9 52 -9 52 -11 53 C-13.45518831 53.13216527 -15.88686876 53.2097289 -18.34375 53.24609375 C-19.83203738 53.27902092 -21.32031849 53.31223275 -22.80859375 53.34570312 C-25.15897459 53.39320297 -27.50932795 53.43765537 -29.85986328 53.47680664 C-32.1255912 53.51642722 -34.3908039 53.5679826 -36.65625 53.62109375 C-37.36148804 53.6295079 -38.06672607 53.63792206 -38.79333496 53.64659119 C-42.84520556 53.64173176 -42.84520556 53.64173176 -46 56 C-46.40047444 58.32275177 -46.7397104 60.65739357 -47 63 C-48.485 62.505 -48.485 62.505 -50 62 C-51.25 59.0625 -51.25 59.0625 -52 56 C-51.505 55.01 -51.505 55.01 -51 54 C-50.01 54 -49.02 54 -48 54 C-47.67 52.68 -47.34 51.36 -47 50 C-46.12263184 49.98018066 -45.24526367 49.96036133 -44.34130859 49.93994141 C-41.06467423 49.861524 -37.78847139 49.77482117 -34.51220703 49.68261719 C-33.09822937 49.64449762 -31.68416035 49.60961596 -30.27001953 49.578125 C-28.2291616 49.53210142 -26.1889234 49.47417333 -24.1484375 49.4140625 C-22.92302246 49.3826416 -21.69760742 49.3512207 -20.43505859 49.31884766 C-17.00551927 49.00051231 -14.20772767 48.22383184 -11 47 C-11 44.69 -11 42.38 -11 40 C-10.34 39.67 -9.68 39.34 -9 39 C-8.18343977 36.40575344 -8.18343977 36.40575344 -7.5625 33.25 C-7.18544922 31.50203125 -7.18544922 31.50203125 -6.80078125 29.71875 C-6.40439453 27.87796875 -6.40439453 27.87796875 -6 26 C-5.15650796 22.49343048 -4.3081151 18.98815796 -3.453125 15.484375 C-3.30359375 14.66453125 -3.1540625 13.8446875 -3 13 C-3.33 12.67 -3.66 12.34 -4 12 C-7.98868687 15.67006396 -11.22871791 19.19378025 -14 23.875 C-15.4765625 26.1953125 -15.4765625 26.1953125 -17 28 C-20.375 28.75 -20.375 28.75 -24 29 C-26.8277761 30.43547413 -29.37921666 32.22197836 -32 34 C-35.65541292 36.46095123 -38.44656614 37.45068198 -42.8125 38 C-46.44557818 38.5265972 -49.63211719 39.10096595 -53 40.5625 C-61.98822422 44.2572885 -72.7624502 43.04975905 -82.25 42.5625 C-83.38824219 42.51029297 -84.52648437 42.45808594 -85.69921875 42.40429688 C-88.46654766 42.27639512 -91.2333411 42.14154253 -94 42 C-94 42.66 -94 43.32 -94 44 C-95.485 43.505 -95.485 43.505 -97 43 C-97 42.34 -97 41.68 -97 41 C-97.969375 41.020625 -98.93875 41.04125 -99.9375 41.0625 C-103 41 -103 41 -104 40 C-109.47816824 39.14267894 -114.80306147 38.85157638 -120.33984375 38.8671875 C-121.48943321 38.86575241 -121.48943321 38.86575241 -122.6622467 38.86428833 C-124.27149539 38.86361258 -125.8807469 38.86542427 -127.48999023 38.86962891 C-129.92763512 38.87497835 -132.36509517 38.86966701 -134.80273438 38.86328125 C-142.25937767 38.86042024 -149.60520583 38.92034291 -157 40 C-156.66341505 48.45871306 -154.20655787 55.21393554 -151 63 C-150.18564476 65.22848958 -149.37311684 67.45764785 -148.5625 69.6875 C-146.58408442 74.89585285 -144.11915997 79.43889965 -141.0390625 84.07421875 C-140.69617188 84.70972656 -140.35328125 85.34523438 -140 86 C-140.33 86.66 -140.66 87.32 -141 88 C-163.97437192 54.4425262 -163.97437192 54.4425262 -163 38 C-140.9125026 33.03265617 -119.02077077 33.27641754 -96.734375 37.05078125 C-69.35383363 41.35072303 -43.89554989 37.97259457 -21.0625 22.0625 C-12.82080075 15.7360382 -6.13809954 8.34860484 0 0 Z " fill="#72111F" transform="translate(245,187)"/>
<path d="M0 0 C2.1875 1.875 2.1875 1.875 4 4 C6.31808364 5.03485877 8.65175298 6.0355414 11 7 C13.4375 8.5625 13.4375 8.5625 15 10 C15 10.66 15 11.32 15 12 C16.15886719 12.09152344 17.31773437 12.18304688 18.51171875 12.27734375 C23.10626187 12.85128205 26.72469359 14.46672108 30.8125 16.5625 C35.6553518 19.14988355 35.6553518 19.14988355 41 20 C41 20.66 41 21.32 41 22 C42.58298026 22.4803318 44.16639978 22.95921612 45.75 23.4375 C47.07257813 23.83775391 47.07257813 23.83775391 48.421875 24.24609375 C52.64509781 25.5447669 52.64509781 25.5447669 57 26 C57 26.99 57 27.98 57 29 C57.845625 28.938125 58.69125 28.87625 59.5625 28.8125 C62.88694387 28.9938333 64.80603678 29.74596313 67.76171875 31.1484375 C71.76723604 32.67235158 76.00222568 33.28924498 80.20703125 34.05859375 C85.01239066 35.25127307 89.44901101 37.07106978 94 39 C94.02932237 42.66664954 94.04690637 46.3332684 94.0625 50 C94.07087891 51.02996094 94.07925781 52.05992187 94.08789062 53.12109375 C94.10613637 58.85025613 93.86475384 64.33484101 93 70 C92.67 70 92.34 70 92 70 C92 60.43 92 50.86 92 41 C88.41125 40.195625 84.8225 39.39125 81.125 38.5625 C62.17051782 34.08423635 44.23526993 27.73882917 26.5625 19.5625 C24.79700806 18.74700684 24.79700806 18.74700684 22.99584961 17.91503906 C17.67687762 15.40329191 12.5474998 12.81067112 7.57421875 9.6640625 C-0.56513349 4.21216188 -0.56513349 4.21216188 -9.90625 3.78125 C-13.43206951 5.33528207 -16.57180643 7.43000209 -19.76074219 9.57666016 C-23.93251653 12.22836583 -28.41111507 14.26672916 -32.875 16.375 C-33.84348877 16.8383374 -34.81197754 17.3016748 -35.80981445 17.77905273 C-57.77721643 28.15379008 -81.06419889 36.58667442 -105 41 C-105.86339743 61.59362755 -102.83829547 82.23113354 -98.8671875 102.390625 C-98.04638591 106.58038833 -97.47893161 110.75803431 -97 115 C-101.2498575 108.62521375 -102.5765749 100.18690234 -104.1875 92.75 C-104.79292187 89.20776105 -104.79292187 89.20776105 -106 87 C-107.85183037 76.6515362 -108.53621315 66.12937315 -109.30249023 55.65795898 C-109.66933757 50.72187983 -110.04701457 45.86612912 -111 41 C-109.515 40.505 -109.515 40.505 -108 40 C-107.67 39.01 -107.34 38.02 -107 37 C-106.41734375 36.89042969 -105.8346875 36.78085938 -105.234375 36.66796875 C-85.53466581 33.08157523 -85.53466581 33.08157523 -67 26 C-65.59119586 25.51804069 -64.17389355 25.06036313 -62.75 24.625 C-58.85824862 23.37476686 -55.38708977 21.7638427 -51.82421875 19.76953125 C-50 19 -50 19 -46 19 C-46 18.34 -46 17.68 -46 17 C-45.154375 16.69707031 -44.30875 16.39414063 -43.4375 16.08203125 C-37.47983245 13.8817563 -32.02904665 11.66810256 -26.7578125 8.1171875 C-24.01435314 6.37356666 -20.98323851 5.27853079 -18 4 C-16.7240269 3.09050135 -15.45342167 2.17343785 -14.1875 1.25 C-9.50856183 -1.768964 -5.24768898 -1.56773535 0 0 Z " fill="#580813" transform="translate(167,106)"/>
<path d="M0 0 C3.08733836 3.15302641 4.63147999 5.80331987 4.90234375 10.25 C4.63550423 13.64930351 4.02524025 15.0238933 2.27734375 18.125 C-1.5714556 21.34542394 -4.76889896 22.57248881 -9.78515625 22.6875 C-13.97348769 21.29138952 -16.70703197 19.62499864 -18.78515625 15.6875 C-20.26977366 10.06716265 -19.60640362 6.74628838 -16.78515625 1.6875 C-12.15847276 -2.78993564 -5.48880123 -4.03553001 0 0 Z " fill="#5F0C16" transform="translate(114.78515625,82.3125)"/>
<path d="M0 0 C5.23924496 -0.8300548 8.68398377 1.12205757 13 3.8125 C19.57544521 7.7821738 25.58143181 10.91049062 33 13 C36.66385537 14.51743366 40.27240394 16.13504812 43.890625 17.7578125 C46.90626553 19.18549418 46.90626553 19.18549418 50 19 C50 19.66 50 20.32 50 21 C51.58298026 21.4803318 53.16639978 21.95921612 54.75 22.4375 C55.63171875 22.70433594 56.5134375 22.97117188 57.421875 23.24609375 C61.64509781 24.5447669 61.64509781 24.5447669 66 25 C66 25.99 66 26.98 66 28 C66.845625 27.938125 67.69125 27.87625 68.5625 27.8125 C71.88694387 27.9938333 73.80603678 28.74596313 76.76171875 30.1484375 C80.76723604 31.67235158 85.00222568 32.28924498 89.20703125 33.05859375 C94.01239066 34.25127307 98.44901101 36.07106978 103 38 C103.02932237 41.66664954 103.04690637 45.3332684 103.0625 49 C103.07087891 50.02996094 103.07925781 51.05992187 103.08789062 52.12109375 C103.10613637 57.85025613 102.86475384 63.33484101 102 69 C101.67 69 101.34 69 101 69 C101 59.43 101 49.86 101 40 C97.41125 39.195625 93.8225 38.39125 90.125 37.5625 C61.46462038 30.79108124 34.2955892 19.48198526 8.76977539 4.80688477 C4.64958814 2.46415486 4.64958814 2.46415486 -0.00390625 2.2421875 C-0.66261719 2.49226563 -1.32132813 2.74234375 -2 3 C-1.34 2.01 -0.68 1.02 0 0 Z " fill="#4B060E" transform="translate(158,107)"/>
<path d="M0 0 C5.33847076 0.62963143 10.67066375 1.29728554 16 2 C17.66869141 2.2165625 17.66869141 2.2165625 19.37109375 2.4375 C20.79615234 2.6540625 20.79615234 2.6540625 22.25 2.875 C23.49523437 3.05675781 23.49523437 3.05675781 24.765625 3.2421875 C27.78285252 4.26551292 29.01923596 5.49950644 31 8 C31.4699707 11.15014648 31.4699707 11.15014648 31.42578125 14.87109375 C31.42303696 15.54093796 31.42029266 16.21078217 31.41746521 16.90092468 C31.4029029 19.08054225 31.35882828 21.25834401 31.3125 23.4375 C31.29283189 24.94708877 31.27428346 26.45669253 31.25683594 27.96630859 C31.2077612 31.65869813 31.13173261 35.34990501 31.04425049 39.04156494 C31.00513262 40.77284077 30.97616483 42.50433947 30.94873047 44.23583984 C30.49572039 71.65010247 24.50003189 99.68077416 14 125 C12.72102795 121.43363564 13.29363077 119.62263176 14.75 116.1875 C16.99728675 110.41429784 18.19163301 104.64626452 19.2890625 98.578125 C20 95 20 95 21.05859375 91.375 C22.11290924 87.59521334 22.37099113 84.13166811 22.55859375 80.234375 C22.96073278 77.28772793 23.62987116 74.71687379 24.46484375 71.87109375 C26.10946535 66.02409725 26.72748478 60.35850802 27.125 54.3125 C27.20210205 53.24394775 27.2792041 52.17539551 27.35864258 51.07446289 C27.89336936 43.36750844 28.32577855 35.65442459 28.6875 27.9375 C28.76025146 26.4676062 28.76025146 26.4676062 28.83447266 24.96801758 C29.05729439 19.50035151 28.84726126 14.40845721 28 9 C27.34 9 26.68 9 26 9 C25.67 8.34 25.34 7.68 25 7 C22.49090362 6.42947928 20.03642204 5.96656454 17.5 5.5625 C11.42617619 4.52067426 5.7886734 3.17075252 0 1 C0 0.67 0 0.34 0 0 Z " fill="#7D1826" transform="translate(246,127)"/>
<path d="M0 0 C2.88633687 1.53937966 4.51183095 2.73237872 5.70703125 5.8359375 C6.31784209 8.81578102 6.41457724 11.02234024 5.21484375 13.8515625 C3.5594839 16.21956879 1.85113652 17.78132856 -0.9765625 18.5078125 C-4.33585931 18.69653704 -6.61070831 18.24954596 -9.4375 16.4375 C-11.54781557 13.1454077 -12 10.91300627 -12 7 C-8.82302774 1.08425855 -6.72542163 -0.65935506 0 0 Z " fill="#BF3444" transform="translate(132,6)"/>
<path d="M0 0 C0.33 0 0.66 0 1 0 C0.88113155 9.33657669 0.41389731 18.11419578 -2.4375 27.0625 C-2.65494873 27.74634766 -2.87239746 28.43019531 -3.09643555 29.13476562 C-4.71008646 33.85504323 -4.71008646 33.85504323 -7 35 C-9.45518831 35.13216527 -11.88686876 35.2097289 -14.34375 35.24609375 C-15.83203738 35.27902092 -17.32031849 35.31223275 -18.80859375 35.34570312 C-21.15897459 35.39320297 -23.50932795 35.43765537 -25.85986328 35.47680664 C-28.1255912 35.51642722 -30.3908039 35.5679826 -32.65625 35.62109375 C-33.36148804 35.6295079 -34.06672607 35.63792206 -34.79333496 35.64659119 C-38.84520556 35.64173176 -38.84520556 35.64173176 -42 38 C-42.40047444 40.32275177 -42.7397104 42.65739357 -43 45 C-43.99 44.67 -44.98 44.34 -46 44 C-47.25 41.0625 -47.25 41.0625 -48 38 C-47.67 37.34 -47.34 36.68 -47 36 C-46.01 36 -45.02 36 -44 36 C-43.67 34.68 -43.34 33.36 -43 32 C-42.12263184 31.98018066 -41.24526367 31.96036133 -40.34130859 31.93994141 C-37.06467423 31.861524 -33.78847139 31.77482117 -30.51220703 31.68261719 C-29.09822937 31.64449762 -27.68416035 31.60961596 -26.27001953 31.578125 C-24.2291616 31.53210142 -22.1889234 31.47417333 -20.1484375 31.4140625 C-18.92302246 31.3826416 -17.69760742 31.3512207 -16.43505859 31.31884766 C-13.00551927 31.00051231 -10.20772767 30.22383184 -7 29 C-7 26.69 -7 24.38 -7 22 C-6.34 21.67 -5.68 21.34 -5 21 C-4.15094335 18.23586327 -4.15094335 18.23586327 -3.5 14.9375 C-3.11908203 13.18179688 -3.11908203 13.18179688 -2.73046875 11.390625 C-2.48941406 10.27171875 -2.24835938 9.1528125 -2 8 C-1.35549297 5.32707515 -0.67915552 2.66437934 0 0 Z " fill="#6E1620" transform="translate(241,205)"/>
<path d="M0 0 C4.54418981 0.62558636 8.25994543 2.47372272 12.3125 4.5 C33.84098748 14.90274019 56.97093381 22.74670595 80.60644531 26.5324707 C81.77771973 26.73682739 81.77771973 26.73682739 82.97265625 26.9453125 C83.65593994 27.05375488 84.33922363 27.16219727 85.04321289 27.27392578 C87.917589 28.34047532 89.17885985 29.52204699 91 32 C91.36273666 34.70780558 91.49199888 36.99652037 91.42578125 39.6953125 C91.42084908 40.81654007 91.42084908 40.81654007 91.41581726 41.9604187 C91.40009768 44.34920354 91.35613182 46.73657982 91.3125 49.125 C91.30100083 50.70832169 91.29121798 52.29165684 91.28320312 53.875 C91.22139783 61.64054549 90.95482517 69.28377062 90 77 C89.67 77 89.34 77 89 77 C89.01571045 75.68281982 89.0314209 74.36563965 89.04760742 73.00854492 C89.10185386 68.12774761 89.1363309 63.246977 89.16479492 58.3659668 C89.1798936 56.25231446 89.20037426 54.13869352 89.22631836 52.02514648 C89.26265397 48.98934185 89.27971544 45.95395094 89.29296875 42.91796875 C89.30845261 41.97100632 89.32393646 41.02404388 89.33988953 40.04838562 C89.34011612 39.16769913 89.34034271 38.28701263 89.34057617 37.37963867 C89.34723801 36.60464523 89.35389984 35.82965179 89.36076355 35.03117371 C88.90402482 32.45963981 88.02852979 31.59420598 86 30 C83.85233955 29.30750972 83.85233955 29.30750972 81.375 29 C79.90546875 28.76023438 79.90546875 28.76023438 78.40625 28.515625 C75.96939676 28.14674355 73.53180806 27.78270759 71.09375 27.421875 C60.52814351 25.77398261 50.98509987 22.77729279 41 19 C36.47309017 17.39799862 32.08644978 16.38579809 27.3671875 15.5625 C24.99906476 14.99977776 23.12302279 14.17402182 21 13 C20.67 13.66 20.34 14.32 20 15 C19.67 14.01 19.34 13.02 19 12 C17.845 11.505 16.69 11.01 15.5 10.5 C14.345 10.005 13.19 9.51 12 9 C11.67 8.01 11.34 7.02 11 6 C9.0187415 5.27954236 7.01495907 4.61998741 5 4 C2.125 2.4375 2.125 2.4375 0 1 C0 0.67 0 0.34 0 0 Z " fill="#360107" transform="translate(187,102)"/>
<path d="M0 0 C0.33 0.66 0.66 1.32 1 2 C2.010625 1.62875 3.02125 1.2575 4.0625 0.875 C8.15960322 -0.30990562 11.03142274 0.4125691 15 2 C16.39935013 4.79870027 16.25265405 6.90498792 16 10 C14.625 11.875 14.625 11.875 13 13 C12.34 13 11.68 13 11 13 C11 13.66 11 14.32 11 15 C2.36497244 15.4390692 2.36497244 15.4390692 -2 12 C-3.10647808 9.78704384 -3.19588368 8.45327301 -3.25 6 C-3.27578125 5.29875 -3.3015625 4.5975 -3.328125 3.875 C-3.21984375 3.25625 -3.1115625 2.6375 -3 2 C-2.01 1.34 -1.02 0.68 0 0 Z " fill="#D73646" transform="translate(101,88)"/>
<path d="M0 0 C2 2 2 2 2.9375 4.5 C3.8583474 7.30191747 3.8583474 7.30191747 7 9 C7.9140625 10.83984375 7.9140625 10.83984375 8.625 12.9375 C8.98464844 13.97197266 8.98464844 13.97197266 9.3515625 15.02734375 C9.56554687 15.67832031 9.77953125 16.32929688 10 17 C10.33 17.99 10.66 18.98 11 20 C11.144375 20.70125 11.28875 21.4025 11.4375 22.125 C11.623125 22.74375 11.80875 23.3625 12 24 C12.66 24.33 13.32 24.66 14 25 C14.47122751 26.64929629 14.93671361 28.3005382 15.3671875 29.9609375 C16.47042324 33.51580821 18.26791143 36.71850408 20 40 C20.309375 40.71800781 20.61875 41.43601562 20.9375 42.17578125 C21.93146825 44.34416425 21.93146825 44.34416425 25 45 C25 46.32 25 47.64 25 49 C26.06291657 50.89551151 26.06291657 50.89551151 27.5 52.625 C30 55.80555556 30 55.80555556 30 58 C30.66 58 31.32 58 32 58 C32.495 59.98 32.495 59.98 33 62 C17.43743628 54.99347781 9.65745852 29.81262548 4 15 C0 4.27785235 0 4.27785235 0 0 Z " fill="#932A35" transform="translate(55,232)"/>
<path d="M0 0 C4.73280832 6.26777318 5.77740761 11.30595119 5 19 C3.43263757 25.02587312 -0.10427226 28.74341805 -5.36328125 31.93359375 C-11.28838876 34.32997056 -17.37656869 33.82589504 -23.375 31.9375 C-27.69133181 28.75163605 -31.28620739 25.14137782 -33 20 C-33.72530305 13.0060063 -33.70271278 7.39129207 -29.4140625 1.6171875 C-21.13149616 -7.85513975 -9.45646378 -7.91703944 0 0 Z M-27 1 C-28.91744593 3.44309577 -28.91744593 3.44309577 -30 6 C-30.34289062 6.61230469 -30.68578125 7.22460938 -31.0390625 7.85546875 C-32.81848777 11.82662514 -32.7198555 15.75731181 -32 20 C-29.19112155 25.85766111 -24.94237545 29.58276253 -19 32 C-13.29570753 32.86761092 -8.88836088 32.22187421 -4 29 C0.01595753 25.44040128 2.68016572 22.63677334 3.3359375 17.23046875 C3.4216643 10.55235106 3.20087615 6.30636987 -1 1 C-6.09658799 -2.95245599 -10.22857452 -4.42020796 -16.58203125 -4.34765625 C-20.76736344 -3.74588797 -23.83714426 -1.73020094 -27 1 Z " fill="#430E12" transform="translate(173,44)"/>
<path d="M0 0 C4.22412838 1.59155548 6.72245923 4.76706742 9.625 8.0625 C22.42181909 22.16321905 37.08813864 32.34317248 54 41 C53.01 42.32 52.02 43.64 51 45 C50.67 43.35 50.34 41.7 50 40 C49.113125 40.268125 48.22625 40.53625 47.3125 40.8125 C44 41 44 41 41.375 38.6875 C40.59125 37.800625 39.8075 36.91375 39 36 C37.67479497 35.31731862 36.34187818 34.6492959 35 34 C34.34 33.319375 33.68 32.63875 33 31.9375 C30.92147384 29.92392778 29.81231342 29.40175906 27 29 C27 28.34 27 27.68 27 27 C25.35 26.67 23.7 26.34 22 26 C22 25.01 22 24.02 22 23 C21.34 23 20.68 23 20 23 C20 22.34 20 21.68 20 21 C19.34 21 18.68 21 18 21 C18 20.34 18 19.68 18 19 C17.34 19 16.68 19 16 19 C16 18.34 16 17.68 16 17 C15.34 17 14.68 17 14 17 C14 16.34 14 15.68 14 15 C12.865625 14.731875 11.73125 14.46375 10.5625 14.1875 C8.7990625 13.5996875 8.7990625 13.5996875 7 13 C6.67 12.01 6.34 11.02 6 10 C5.34 9.67 4.68 9.34 4 9 C4 7.68 4 6.36 4 5 C3.34 5 2.68 5 2 5 C2 4.34 2 3.68 2 3 C1.34 3 0.68 3 0 3 C0 2.01 0 1.02 0 0 Z " fill="#D04957" transform="translate(101,290)"/>
<path d="M0 0 C0.99 0 1.98 0 3 0 C3.99 2.97 4.98 5.94 6 9 C7.98 9 9.96 9 12 9 C12.28875 9.78375 12.5775 10.5675 12.875 11.375 C13.84912254 14.09671632 13.84912254 14.09671632 16 16 C16.99 16.33 17.98 16.66 19 17 C19 18.32 19 19.64 19 21 C19.66 21 20.32 21 21 21 C22.68933922 22.6436814 24.35259924 24.3142876 26 26 C26.886875 26.66 27.77375 27.32 28.6875 28 C31.22592982 30.19539877 32.03068679 31.82770221 33 35 C24.21608953 30.92316263 17.01290909 23.52606251 10 17 C9.31292969 16.36707031 8.62585938 15.73414063 7.91796875 15.08203125 C4.3656917 11.69428072 1.76873164 8.68193668 0 4 C0 2.68 0 1.36 0 0 Z " fill="#A83841" transform="translate(91,297)"/>
<path d="M0 0 C0.89847656 0.31710938 1.79695313 0.63421875 2.72265625 0.9609375 C8.18781783 2.52241224 13.79127847 2.46415808 19.4375 2.625 C21.1071582 2.68300781 21.1071582 2.68300781 22.81054688 2.7421875 C25.54020476 2.83590966 28.26986563 2.92162294 31 3 C30.375 5.375 30.375 5.375 29 9 C28.71471436 9.85682373 28.42942871 10.71364746 28.13549805 11.59643555 C26.7531642 14.77503528 25.60995115 16.69377205 23 19 C17.26310266 20.28919909 11.65949439 20.04527305 5.8125 19.8125 C3.45810497 19.74586391 1.10564508 19.69384345 -1.24958801 19.670578 C-2.71035647 19.65352273 -4.17111029 19.61016168 -5.63017273 19.53755188 C-7.87036764 19.43929676 -7.87036764 19.43929676 -11 20 C-13.07514839 22.50788805 -14.03106211 23.91282615 -13.9375 27.1875 C-12.68363445 29.61164007 -11.50640178 29.97852923 -9 31 C-6.68607335 31.36097744 -6.68607335 31.36097744 -4.234375 31.4140625 C-3.34492188 31.45273437 -2.45546875 31.49140625 -1.5390625 31.53125 C-0.61867187 31.5621875 0.30171875 31.593125 1.25 31.625 C2.18585938 31.66367187 3.12171875 31.70234375 4.0859375 31.7421875 C6.39043054 31.83624844 8.69492013 31.92189399 11 32 C11 32.99 11 33.98 11 35 C9 36.6875 9 36.6875 7 38 C7.33 36.35 7.66 34.7 8 33 C7.12263184 33.03927612 7.12263184 33.03927612 6.22753906 33.0793457 C3.56863434 33.18349756 0.91015856 33.24837772 -1.75 33.3125 C-2.67039063 33.35439453 -3.59078125 33.39628906 -4.5390625 33.43945312 C-11.36878486 33.56317998 -11.36878486 33.56317998 -14.609375 30.671875 C-16.30230334 27.41916999 -16.61556209 25.61642727 -16 22 C-14.45800781 19.85449219 -14.45800781 19.85449219 -12 18 C-9.26289523 17.58207005 -6.91013895 17.39527789 -4.171875 17.390625 C-3.42286926 17.37408875 -2.67386353 17.35755249 -1.90216064 17.34051514 C0.48197654 17.2920649 2.86547611 17.27067228 5.25 17.25 C6.86982369 17.2218376 8.48961772 17.19190978 10.109375 17.16015625 C14.07320898 17.08299145 18.03503515 17.04245144 22 17 C25.465 10.565 25.465 10.565 29 4 C27.24171875 4.02320313 25.4834375 4.04640625 23.671875 4.0703125 C21.36458758 4.08907093 19.05729556 4.10727105 16.75 4.125 C15.01169922 4.15013672 15.01169922 4.15013672 13.23828125 4.17578125 C12.12324219 4.18222656 11.00820312 4.18867188 9.859375 4.1953125 C8.83295898 4.20578613 7.80654297 4.21625977 6.74902344 4.22705078 C3.98015712 3.99836111 2.35581208 3.4243299 0 2 C0 1.34 0 0.68 0 0 Z " fill="#39080B" transform="translate(198,250)"/>
<path d="M0 0 C0 4.92963287 -3.6668541 7.60636143 -7 11 C-9.35873229 13.09370619 -11.74129227 15.14031434 -14.1796875 17.140625 C-16.15361556 18.83039028 -16.15361556 18.83039028 -16.46484375 21.078125 C-17 23 -17 23 -19.07421875 24.34375 C-19.93660156 24.7253125 -20.79898438 25.106875 -21.6875 25.5 C-24.68218487 26.84510883 -27.1756738 28.12873066 -29.8359375 30.078125 C-33.51307916 32.31164809 -36.74305094 32.8690472 -40.9375 33.25 C-41.61490234 33.32734375 -42.29230469 33.4046875 -42.99023438 33.484375 C-47.35191713 33.95274362 -51.62274563 34.06848377 -56 34 C-56 33.67 -56 33.34 -56 33 C-54.43765625 32.70609375 -54.43765625 32.70609375 -52.84375 32.40625 C-31.97997186 28.17558033 -12.66708096 17.57557483 0 0 Z " fill="#550A13" transform="translate(241,192)"/>
<path d="M0 0 C0.33 0 0.66 0 1 0 C1.23006562 7.20872273 0.8323481 13.90483582 -0.5 20.9921875 C-1.00777877 24.04679418 -1.24786816 27.03558129 -1.4375 30.125 C-1.77968784 34.8361933 -2.74832381 38.86659311 -4.234375 43.33203125 C-5.70153999 48.4446521 -6.29876158 53.73658692 -7 59 C-7.66 59 -8.32 59 -9 59 C-9.144375 59.78375 -9.28875 60.5675 -9.4375 61.375 C-10 64 -10 64 -11 66 C-11.66 66 -12.32 66 -13 66 C-13.33 66.99 -13.66 67.98 -14 69 C-15.12210528 65.63368415 -14.92298127 65.09967285 -13.7421875 61.921875 C-13.44860352 61.10275635 -13.15501953 60.2836377 -12.85253906 59.43969727 C-12.52995117 58.55209717 -12.20736328 57.66449707 -11.875 56.75 C-5.46576736 38.28263811 -2.29460894 19.36558507 0 0 Z " fill="#721B25" transform="translate(258,176)"/>
<path d="M0 0 C5.30731664 3.49800415 8.15816665 6.58987872 9.75 12.8125 C8.986875 12.131875 8.22375 11.45125 7.4375 10.75 C6.550625 10.110625 5.66375 9.47125 4.75 8.8125 C3.76 9.1425 2.77 9.4725 1.75 9.8125 C1.09 9.8125 0.43 9.8125 -0.25 9.8125 C0.41 8.1625 1.07 6.5125 1.75 4.8125 C-1.93564084 2.35670303 -1.93564084 2.35670303 -6.25 1.8125 C-6.930625 1.626875 -7.61125 1.44125 -8.3125 1.25 C-10.3174281 0.58236497 -10.3174281 0.58236497 -12.25 1.8125 C-13.24 3.2975 -13.24 3.2975 -14.25 4.8125 C-15.7040625 5.7096875 -15.7040625 5.7096875 -17.1875 6.625 C-21.17500198 9.4732157 -22.75903455 12.14588376 -23.6484375 16.9765625 C-23.90196163 18.91567953 -24.08203505 20.86410653 -24.25 22.8125 C-24.58 22.8125 -24.91 22.8125 -25.25 22.8125 C-25.76269953 15.86257306 -25.27673384 10.64385703 -21.25 4.8125 C-15.39826522 -1.61354297 -7.99603885 -2.92162958 0 0 Z " fill="#870B1E" transform="translate(166.25,41.1875)"/>
<path d="M0 0 C0.33 0.99 0.66 1.98 1 3 C-0.36328125 5.5234375 -0.36328125 5.5234375 -2.3125 8.375 C-6.32968651 14.24236974 -6.32968651 14.24236974 -8.25 21 C-9.48212744 24.28567318 -12.30828727 25.86906075 -15 28 C-15.33 28.66 -15.66 29.32 -16 30 C-18.5625 30.625 -18.5625 30.625 -21 31 C-19.18363533 26.97152639 -16.66626243 23.4507714 -14.1875 19.8125 C-10.50088334 14.35155812 -7.02006014 8.86527469 -4 3 C-3.01 3 -2.02 3 -1 3 C-0.67 2.01 -0.34 1.02 0 0 Z " fill="#8D2833" transform="translate(239,258)"/>
<path d="M0 0 C0.99 0.495 0.99 0.495 2 1 C2 1.99 2 2.98 2 4 C3.65 3.67 5.3 3.34 7 3 C7 3.99 7 4.98 7 6 C5.68 5.67 4.36 5.34 3 5 C3 5.66 3 6.32 3 7 C4.32 7 5.64 7 7 7 C7.66 7.66 8.32 8.32 9 9 C8.67 9.66 8.34 10.32 8 11 C8.78375 11.144375 9.5675 11.28875 10.375 11.4375 C13 12 13 12 15 13 C15 12.34 15 11.68 15 11 C17.97 11 20.94 11 24 11 C23.67 9.68 23.34 8.36 23 7 C25.64738916 5.5393715 26.89448334 5 30 5 C28.53295129 10.50143266 28.53295129 10.50143266 26.0625 12.8125 C21.53945743 15.41667602 17.08680304 15.73256549 12 15 C6.99252538 12.88280459 2.81703217 9.69505361 0 5 C-0.25 2.1875 -0.25 2.1875 0 0 Z " fill="#C54351" transform="translate(142,61)"/>
<path d="M0 0 C5.14466411 -0.76654021 8.05227187 0.83038168 12.375 3.5 C13.60585741 4.23937786 14.83902667 4.97491779 16.07421875 5.70703125 C16.71407715 6.08682129 17.35393555 6.46661133 18.01318359 6.85791016 C30.42266187 13.99130157 43.69416812 19.85232028 57.05102539 24.94580078 C59.86220862 26.03778765 61.84232697 26.84232697 64 29 C58.41503819 28.39548879 53.77861742 26.41861723 48.6875 24.1875 C47.78539795 23.7965918 46.8832959 23.40568359 45.95385742 23.00292969 C36.43060048 18.82946184 27.06090038 14.33473982 17.70703125 9.796875 C16.7526416 9.33474609 15.79825195 8.87261719 14.81494141 8.39648438 C12.922536 7.45766747 11.04442659 6.48952219 9.18115234 5.49414062 C8.30023926 5.02685547 7.41932617 4.55957031 6.51171875 4.078125 C5.73658936 3.6543457 4.96145996 3.23056641 4.1628418 2.79394531 C1.64840536 1.87093512 0.47734503 2.0917223 -2 3 C-1.34 2.01 -0.68 1.02 0 0 Z " fill="#310106" transform="translate(158,107)"/>
<path d="M0 0 C0.66 0 1.32 0 2 0 C0.4629344 5.71567507 -2.40358926 10.255097 -5.5625 15.1875 C-6.09609131 16.02595459 -6.62968262 16.86440918 -7.17944336 17.72827148 C-17.44588614 33.63059076 -17.44588614 33.63059076 -24 38 C-24.375 35.25 -24.375 35.25 -24 32 C-21.25 29.875 -21.25 29.875 -18 28 C-14.35901801 25.08721441 -13.18217604 22.24391513 -11.71875 17.95703125 C-10.78859622 15.42438428 -9.44918674 13.26829229 -8 11 C-7.67 10.29875 -7.34 9.5975 -7 8.875 C-5.90793484 6.82737782 -4.66757365 5.60087071 -3 4 C-2.484375 3.278125 -1.96875 2.55625 -1.4375 1.8125 C-0.963125 1.214375 -0.48875 0.61625 0 0 Z " fill="#87262F" transform="translate(250,268)"/>
<path d="M0 0 C0.99 0 1.98 0 3 0 C3.33 0.66 3.66 1.32 4 2 C6.64 2 9.28 2 12 2 C12 2.33 12 2.66 12 3 C10.3603125 3.4021875 10.3603125 3.4021875 8.6875 3.8125 C4.57732916 4.98739733 4.57732916 4.98739733 2 8 C1.57857918 11.30112979 1.56613235 13.2414841 3.23168945 16.15332031 C5.45689458 18.47714354 6.49685703 18.52858234 9.66796875 18.609375 C10.56064453 18.64160156 11.45332031 18.67382812 12.37304688 18.70703125 C13.30181641 18.72121094 14.23058594 18.73539062 15.1875 18.75 C16.12787109 18.77964844 17.06824219 18.80929687 18.03710938 18.83984375 C20.35815916 18.91053562 22.67820535 18.96323165 25 19 C24.67 20.98 24.34 22.96 24 25 C23.67 24.34 23.34 23.68 23 23 C22.01 23 21.02 23 20 23 C19.67 23.99 19.34 24.98 19 26 C19 24.35 19 22.7 19 21 C17.54119891 21.14107747 16.08296449 21.28802415 14.625 21.4375 C13.81289062 21.51871094 13.00078125 21.59992188 12.1640625 21.68359375 C9.95727195 21.89090114 9.95727195 21.89090114 8 23 C8 22.34 8 21.68 8 21 C7.4225 20.9175 6.845 20.835 6.25 20.75 C3.02266584 19.67422195 1.9162776 18.8744164 0 16 C-0.23537496 13.18405955 -0.1863574 10.47751851 -0.04296875 7.65625 C-0.00309971 5.19161838 -0.38359283 3.35842745 -1 1 C-0.67 0.67 -0.34 0.34 0 0 Z " fill="#C73B4C" transform="translate(181,264)"/>
<path d="M0 0 C0.66 0.33 1.32 0.66 2 1 C1.34 1.99 0.68 2.98 0 4 C0.66 4.33 1.32 4.66 2 5 C1.28328125 4.89945312 0.5665625 4.79890625 -0.171875 4.6953125 C-4.18149431 5.12728806 -5.51634835 6.98584122 -8.25 9.875 C-9.55710938 11.23238281 -9.55710938 11.23238281 -10.890625 12.6171875 C-13.00982812 14.80465266 -13.00982812 14.80465266 -14 17 C-16.61276078 18.71695709 -19.2085136 20.09361835 -22.0625 21.375 C-25.28761996 23.15910891 -26.89815182 25.00890836 -29 28 C-29.99 27.67 -30.98 27.34 -32 27 C-27.88563328 21.66244318 -23.5363486 18.10565265 -18.0234375 14.26171875 C-14.07303969 11.3065762 -10.52431406 8.00982672 -6.97216797 4.59277344 C-4.63552987 2.37094812 -3.10562111 1.03520704 0 0 Z " fill="#D84757" transform="translate(212,299)"/>
<path d="M0 0 C0.99 0 1.98 0 3 0 C3.01417969 0.57105469 3.02835937 1.14210937 3.04296875 1.73046875 C3.49984433 9.49735369 6.06051345 15.86242985 9 23 C9.81435524 25.22848958 10.62688316 27.45764785 11.4375 29.6875 C13.41591558 34.89585285 15.88084003 39.43889965 18.9609375 44.07421875 C19.30382812 44.70972656 19.64671875 45.34523438 20 46 C19.67 46.66 19.34 47.32 19 48 C1.17970824 21.97082384 1.17970824 21.97082384 1.03515625 7.515625 C0.99853265 4.89500319 0.58245601 2.54996487 0 0 Z " fill="#6D1621" transform="translate(85,227)"/>
<path d="M0 0 C0.33 0 0.66 0 1 0 C1.12117188 1.01320312 1.24234375 2.02640625 1.3671875 3.0703125 C1.53613783 4.4219151 1.70542669 5.77347542 1.875 7.125 C1.95363281 7.79015625 2.03226563 8.4553125 2.11328125 9.140625 C2.50004174 12.17520729 2.99052794 14.97226311 3.98046875 17.87109375 C5.37937512 22.16428917 5.86439731 26.46931697 6.4375 30.9375 C7.48059654 38.74234053 8.80090228 46.38926148 10.546875 54.06640625 C10.98672799 56.91407519 10.78287219 58.30806286 10 61 C6.58637631 47.925274 3.60746267 34.87421193 1.625 21.5 C1.45774414 20.3864917 1.29048828 19.2729834 1.11816406 18.12573242 C0.25677681 12.01868206 -0.16840568 6.16623886 0 0 Z " fill="#500F15" transform="translate(44,171)"/>
<path d="M0 0 C2.88633687 1.53937966 4.51183095 2.73237872 5.70703125 5.8359375 C6.31784209 8.81578102 6.41457724 11.02234024 5.21484375 13.8515625 C3.5594839 16.21956879 1.85113652 17.78132856 -0.9765625 18.5078125 C-4.33585931 18.69653704 -6.61070831 18.24954596 -9.4375 16.4375 C-11.54781557 13.1454077 -12 10.91300627 -12 7 C-8.82302774 1.08425855 -6.72542163 -0.65935506 0 0 Z M-7 4 C-7 4.66 -7 5.32 -7 6 C-7.99 6.33 -8.98 6.66 -10 7 C-10.21691118 10.18136394 -10.25066255 12.43969547 -8.9375 15.375 C-6.97348479 17.31137308 -6.97348479 17.31137308 -3.5625 17.5 C-0.01535917 17.26471984 -0.01535917 17.26471984 2.4375 15.375 C4.44814771 12.31881548 4.53520313 10.59350675 4 7 C3.12870693 4.96117905 3.12870693 4.96117905 1 4 C-1.71878263 3.75868793 -4.2592111 3.8652071 -7 4 Z " fill="#4D0C14" transform="translate(132,6)"/>
<path d="M0 0 C5.04553784 0.7577899 9.4059664 2.82734648 14.00390625 4.91601562 C16.86038906 6.18453971 18.83517293 7 22 7 C22 7.66 22 8.32 22 9 C23.58298026 9.4803318 25.16639978 9.95921612 26.75 10.4375 C27.63171875 10.70433594 28.5134375 10.97117188 29.421875 11.24609375 C33.64509781 12.5447669 33.64509781 12.5447669 38 13 C38 13.99 38 14.98 38 16 C38.845625 15.938125 39.69125 15.87625 40.5625 15.8125 C44.73619843 16.04015628 47.25432947 17.20207814 51 19 C51 19.33 51 19.66 51 20 C44.10969677 19.47997711 38.40884368 17.50944172 32 15 C30.52512839 14.43908079 29.04983734 13.87926368 27.57421875 13.3203125 C25.98672657 12.71420284 24.39948752 12.10742979 22.8125 11.5 C22.06436035 11.21560059 21.3162207 10.93120117 20.54541016 10.63818359 C15.53870664 8.69978415 10.76564512 6.4680283 6 4 C4.845 3.4225 3.69 2.845 2.5 2.25 C1.675 1.8375 0.85 1.425 0 1 C0 0.67 0 0.34 0 0 Z " fill="#881022" transform="translate(186,119)"/>
<path d="M0 0 C0.33 0.66 0.66 1.32 1 2 C2.010625 1.62875 3.02125 1.2575 4.0625 0.875 C8.15960322 -0.30990562 11.03142274 0.4125691 15 2 C16.39431504 4.78863007 16.25660094 6.92078868 16 10 C15.01 10.66 14.02 11.32 13 12 C13.33 10.35 13.66 8.7 14 7 C13.01 7.33 12.02 7.66 11 8 C11 7.34 11 6.68 11 6 C8.03 6 5.06 6 2 6 C1.67 6.66 1.34 7.32 1 8 C0.01 8 -0.98 8 -2 8 C-2.33 6.02 -2.66 4.04 -3 2 C-2.01 1.34 -1.02 0.68 0 0 Z " fill="#C4293B" transform="translate(101,88)"/>
<path d="M0 0 C2.3431213 0.25561323 4.67843403 0.59270772 7 1 C7.33 1.66 7.66 2.32 8 3 C10.52733235 3.65555119 10.52733235 3.65555119 13 4 C13.33 4.99 13.66 5.98 14 7 C15.65 7 17.3 7 19 7 C19.33 7.66 19.66 8.32 20 9 C26.60796496 12.4883908 32.80867087 12.11566414 40 11 C37.12473488 14.2962541 34.92835919 14.84527021 30.66015625 15.19921875 C25.34871525 14.80144564 20.74377046 12.27122166 16 10 C14.29355928 9.24570374 12.58542506 8.49521735 10.875 7.75 C8.89528138 6.86529058 6.93952354 5.96976177 5 5 C5 4.34 5 3.68 5 3 C2.525 2.01 2.525 2.01 0 1 C0 0.67 0 0.34 0 0 Z " fill="#E15260" transform="translate(129,333)"/>
<path d="M0 0 C3.80418306 3.19897212 7.4833861 6.45989084 11.07250977 9.89990234 C21.98274185 20.24343877 34.7042293 27.16589937 48 34 C45.19423065 35.16123947 44.13212664 35.05213544 41.2578125 33.91796875 C27.32885319 26.22404235 15.40795003 17.08293721 4 6 C3.21882813 5.26523437 2.43765625 4.53046875 1.6328125 3.7734375 C0 2 0 2 0 0 Z " fill="#491014" transform="translate(108,295)"/>
<path d="M0 0 C2.4375 3.0625 2.4375 3.0625 4 6 C3.67 6.99 3.34 7.98 3 9 C2.608125 8.278125 2.21625 7.55625 1.8125 6.8125 C-1.22169003 2.10427409 -4.44749825 -1.61187456 -10 -3 C-15.95839392 -3.84629779 -20.3270436 -3.12312337 -25.2734375 0.39453125 C-30.98395049 5.70453315 -31.69453754 12.54671604 -32 20 C-32.33 20 -32.66 20 -33 20 C-33.52848822 12.95349037 -33.74532963 7.44867006 -29.4140625 1.6171875 C-21.13149616 -7.85513975 -9.45646378 -7.91703944 0 0 Z " fill="#370409" transform="translate(173,44)"/>
<path d="M0 0 C0.99 0.33 1.98 0.66 3 1 C2.88671875 2.7109375 2.88671875 2.7109375 2 5 C-0.03977234 6.71002374 -1.98235171 8.166247 -4.1875 9.625 C-4.75275391 10.01945312 -5.31800781 10.41390625 -5.90039062 10.8203125 C-9.46922441 13.24041513 -12.85600364 14.83037432 -17 16 C-17 16.66 -17 17.32 -17 18 C-23.75 20.125 -23.75 20.125 -26 19 C-26 19.66 -26 20.32 -26 21 C-27.32 20.67 -28.64 20.34 -30 20 C-29.34 19.67 -28.68 19.34 -28 19 C-26.86649466 16.98330173 -26.86649466 16.98330173 -26 15 C-25.01 15.66 -24.02 16.32 -23 17 C-15.7772393 13.66523602 -9.42180147 9.67789942 -3 5 C-2.01 4.34 -1.02 3.68 0 3 C0 2.01 0 1.02 0 0 Z " fill="#D44C5A" transform="translate(201,322)"/>
<path d="M0 0 C0.66 0 1.32 0 2 0 C2.08040527 0.90016846 2.16081055 1.80033691 2.24365234 2.7277832 C4.44874968 27.38080945 4.44874968 27.38080945 7 52 C0.51620692 42.27431038 1.52733917 26.99783529 0.69750977 15.65795898 C0.38849699 11.50006731 0.07257088 7.43040465 -0.62109375 3.31640625 C-0.74613281 2.55199219 -0.87117188 1.78757813 -1 1 C-0.67 0.67 -0.34 0.34 0 0 Z " fill="#9A1D2F" transform="translate(57,146)"/>
<path d="M0 0 C5.33847076 0.62963143 10.67066375 1.29728554 16 2 C17.66869141 2.2165625 17.66869141 2.2165625 19.37109375 2.4375 C23.2593599 3.02838984 26.31466298 3.61060397 29.75 5.5625 C31.7076389 9.37989586 30.80618813 12.89895601 30 17 C27.8480563 13.77208445 27.79913557 12.71599191 28 9 C27.34 9 26.68 9 26 9 C25.67 8.34 25.34 7.68 25 7 C22.49090362 6.42947928 20.03642204 5.96656454 17.5 5.5625 C11.42617619 4.52067426 5.7886734 3.17075252 0 1 C0 0.67 0 0.34 0 0 Z " fill="#8E1124" transform="translate(246,127)"/>
<path d="M0 0 C0.66 0 1.32 0 2 0 C1.56541909 3.47664731 0.84924858 6.56963362 -0.4375 9.8125 C-1.5577888 12.64270329 -2.31434553 15.32234285 -2.875 18.3125 C-4.01221609 23.92015173 -6.49652317 28.88793854 -9 34 C-10.33859568 29.5380144 -9.96922713 25.52027482 -9 21 C-7.5 18.6875 -7.5 18.6875 -6 17 C-5.29485154 14.85266073 -5.29485154 14.85266073 -5 13 C-4.34 13 -3.68 13 -3 13 C-3.0928125 12.01 -3.0928125 12.01 -3.1875 11 C-2.93182247 6.90915946 -1.54304956 3.79333016 0 0 Z " fill="#942733" transform="translate(262,234)"/>
<path d="M0 0 C7.3008844 1.973212 14.66827607 5.61000587 20 11 C22.03232242 12.19599068 22.03232242 12.19599068 24.1875 13.1875 C24.90292969 13.53167969 25.61835938 13.87585938 26.35546875 14.23046875 C27.16951172 14.61138672 27.16951172 14.61138672 28 15 C25.55713994 15.8827867 24.36372812 16.12991787 21.88110352 15.24316406 C21.13787842 14.83807617 20.39465332 14.43298828 19.62890625 14.015625 C18.80712891 13.57476562 17.98535156 13.13390625 17.13867188 12.6796875 C15.8634668 11.97199219 15.8634668 11.97199219 14.5625 11.25 C13.71623047 10.79367188 12.86996094 10.33734375 11.99804688 9.8671875 C9.65428491 8.59711445 7.32725233 7.29997401 5 6 C3.97777344 5.45859375 2.95554688 4.9171875 1.90234375 4.359375 C1.27457031 3.91078125 0.64679688 3.4621875 0 3 C0 2.01 0 1.02 0 0 Z " fill="#670514" transform="translate(170,93)"/>
<path d="M0 0 C4.29984648 1.60089749 6.86122872 4.90445005 9.8125 8.25 C13.96830819 12.86721206 18.12601106 17.12296335 23 21 C22.67 21.66 22.34 22.32 22 23 C21.34 23 20.68 23 20 23 C20 22.34 20 21.68 20 21 C19.34 21 18.68 21 18 21 C18 20.34 18 19.68 18 19 C17.34 19 16.68 19 16 19 C16 18.34 16 17.68 16 17 C15.34 17 14.68 17 14 17 C14 16.34 14 15.68 14 15 C12.865625 14.731875 11.73125 14.46375 10.5625 14.1875 C8.7990625 13.5996875 8.7990625 13.5996875 7 13 C6.67 12.01 6.34 11.02 6 10 C5.34 9.67 4.68 9.34 4 9 C4 7.68 4 6.36 4 5 C3.34 5 2.68 5 2 5 C2 4.34 2 3.68 2 3 C1.34 3 0.68 3 0 3 C0 2.01 0 1.02 0 0 Z " fill="#C94556" transform="translate(101,290)"/>
<path d="M0 0 C2.31 0.33 4.62 0.66 7 1 C8.1319918 6.25142061 7.99102816 11.11952039 7.6875 16.4375 C7.65205078 17.25798828 7.61660156 18.07847656 7.58007812 18.92382812 C7.31341505 23.91082557 6.564565 28.25521716 5 33 C4.67 33 4.34 33 4 33 C4.33 22.77 4.66 12.54 5 2 C3.35 1.67 1.7 1.34 0 1 C0 0.67 0 0.34 0 0 Z " fill="#93192B" transform="translate(256,143)"/>
<path d="M0 0 C0.33 0 0.66 0 1 0 C1.2300186 7.20724954 0.83894556 13.90358033 -0.50390625 20.98828125 C-1.01139091 24.06915266 -1.21305066 27.07096261 -1.375 30.1875 C-1.7646217 35.76717677 -3.34522978 40.11028369 -6 45 C-7.35394057 40.59298444 -6.29214087 37.00028763 -5.25 32.625 C-2.81383458 21.83763401 -1.35293336 10.968424 0 0 Z " fill="#450A0F" transform="translate(258,176)"/>
<path d="M0 0 C0.99 0.33 1.98 0.66 3 1 C0.94280827 5.89374016 -2.38292211 7.3438448 -6.875 9.8125 C-7.59558594 10.23208984 -8.31617188 10.65167969 -9.05859375 11.08398438 C-9.75855469 11.47521484 -10.45851562 11.86644531 -11.1796875 12.26953125 C-11.81632324 12.62635986 -12.45295898 12.98318848 -13.10888672 13.35083008 C-15.44099564 14.15138232 -16.70457538 13.79261197 -19 13 C-17.25 8.125 -17.25 8.125 -15 7 C-13.9171875 7.3403125 -13.9171875 7.3403125 -12.8125 7.6875 C-8.52672281 8.16369747 -6.54008041 6.38274643 -3 4 C-2.67 3.34 -2.34 2.68 -2 2 C-1.34 2 -0.68 2 0 2 C0 1.34 0 0.68 0 0 Z " fill="#D44C59" transform="translate(187,298)"/>
<path d="M0 0 C2 2 2 2 2.9375 4.5 C3.8583474 7.30191747 3.8583474 7.30191747 7 9 C7.94921875 11.86328125 7.94921875 11.86328125 8.6875 15.3125 C9.06455078 17.00826172 9.06455078 17.00826172 9.44921875 18.73828125 C9.92937681 21.58177048 10.11316507 24.12776284 10 27 C7.74474102 24.21956005 6.35026652 21.71602012 5.17578125 18.33984375 C4.86962891 17.46392578 4.56347656 16.58800781 4.24804688 15.68554688 C3.78495117 14.32526367 3.78495117 14.32526367 3.3125 12.9375 C2.99216797 12.02677734 2.67183594 11.11605469 2.34179688 10.17773438 C0 3.40200227 0 3.40200227 0 0 Z " fill="#731D27" transform="translate(55,232)"/>
<path d="M0 0 C-3.67885937 1.5154578 -7.35933644 3.02691318 -11.04125977 4.53491211 C-12.89878718 5.2966251 -14.75507176 6.06136662 -16.61132812 6.82617188 C-21.75468639 8.93090656 -26.89954191 11.03479737 -32.12890625 12.91796875 C-32.79092041 13.15668701 -33.45293457 13.39540527 -34.13500977 13.64135742 C-36.3687266 14.0709071 -37.85523979 13.69248264 -40 13 C-36.60180788 11.47428109 -33.4081554 10.11204266 -29.8125 9.125 C-23.38249833 7.22762246 -17.28072271 4.43615769 -11.14453125 1.75 C-10.27183594 1.37875 -9.39914063 1.0075 -8.5 0.625 C-7.7265625 0.28726563 -6.953125 -0.05046875 -6.15625 -0.3984375 C-3.66830658 -1.09253766 -2.43730207 -0.70247895 0 0 Z " fill="#3B0309" transform="translate(126,126)"/>
<path d="M0 0 C0.33 0 0.66 0 1 0 C0.39895804 5.82548364 -0.70803715 11.24761358 -2.3125 16.875 C-2.53252686 17.65858887 -2.75255371 18.44217773 -2.97924805 19.24951172 C-4.62588833 24.98929714 -6.54815653 30.54841508 -9 36 C-10.27897205 32.43363564 -9.70636923 30.62263176 -8.25 27.1875 C-5.91607449 21.23196593 -4.79408013 15.36569956 -3.7109375 9.08984375 C-3 6 -3 6 -1 4 C-0.3574765 1.93125966 -0.3574765 1.93125966 0 0 Z " fill="#530F16" transform="translate(269,216)"/>
<path d="M0 0 C0.33 0 0.66 0 1 0 C1.37471526 4.45978075 1.37471526 4.45978075 -0.28515625 6.8527832 C-0.87167969 7.41312256 -1.45820313 7.97346191 -2.0625 8.55078125 C-3.00996094 9.47407227 -3.00996094 9.47407227 -3.9765625 10.41601562 C-4.64429688 11.04185547 -5.31203125 11.66769531 -6 12.3125 C-7.00160156 13.28026367 -7.00160156 13.28026367 -8.0234375 14.26757812 C-9.67161203 15.85688927 -11.33029098 17.43337902 -13 19 C-13.99 18.34 -14.98 17.68 -16 17 C-15.34 17 -14.68 17 -14 17 C-14 16.34 -14 15.68 -14 15 C-13.34 15 -12.68 15 -12 15 C-12 14.34 -12 13.68 -12 13 C-11.34 12.67 -10.68 12.34 -10 12 C-9.319375 10.5459375 -9.319375 10.5459375 -8.625 9.0625 C-6.86706881 5.74947584 -6.25224498 5.42285718 -3 4 C-1.96352976 2.69481525 -0.95577057 1.36538653 0 0 Z " fill="#CF4655" transform="translate(225,301)"/>
<path d="M0 0 C-2.31197526 2.31197526 -3.69201727 2.60942587 -6.8125 3.4375 C-10.66507953 4.53273332 -13.58597445 5.8990612 -17 8 C-21.25470832 9.61863903 -25.57498203 10.93639024 -30 12 C-30 11.01 -30 10.02 -30 9 C-29.34402832 8.76289307 -28.68805664 8.52578613 -28.01220703 8.28149414 C-25.04934949 7.20974963 -22.08716816 6.13614831 -19.125 5.0625 C-18.09246094 4.68931641 -17.05992188 4.31613281 -15.99609375 3.93164062 C-15.00996094 3.57392578 -14.02382812 3.21621094 -13.0078125 2.84765625 C-12.09660645 2.51773682 -11.18540039 2.18781738 -10.24658203 1.84790039 C-6.46865309 0.42204218 -4.13800645 -0.08995666 0 0 Z " fill="#8A0E21" transform="translate(114,114)"/>
<path d="M0 0 C0.33 0 0.66 0 1 0 C1.18339008 5.67244504 0.66820889 10.4735508 -0.8125 15.9375 C-1.08271973 16.97583984 -1.08271973 16.97583984 -1.35839844 18.03515625 C-2.69809466 23.09991931 -4.23751978 28.06505538 -6 33 C-7.04702186 29.2735915 -7.07442057 25.86986958 -7 22 C-6.34 21.67 -5.68 21.34 -5 21 C-4.15094335 18.23586327 -4.15094335 18.23586327 -3.5 14.9375 C-3.24605469 13.76703125 -2.99210938 12.5965625 -2.73046875 11.390625 C-2.48941406 10.27171875 -2.24835938 9.1528125 -2 8 C-1.35549297 5.32707515 -0.67915552 2.66437934 0 0 Z " fill="#961A2C" transform="translate(241,205)"/>
<path d="M0 0 C3.03029676 3.64582579 4.94568531 7.70144133 7 11.9375 C7.68555296 13.34339902 8.37301325 14.74836978 9.0625 16.15234375 C9.38734375 16.81476074 9.7121875 17.47717773 10.046875 18.15966797 C10.88539498 19.77871603 11.8410757 21.33593275 12.8125 22.87890625 C13.204375 23.57886719 13.59625 24.27882813 14 25 C13.67 25.66 13.34 26.32 13 27 C10.47411298 24.63707344 9.11179163 23.33537489 8 20 C7.01 19.67 6.02 19.34 5 19 C4.12109375 16.63671875 4.12109375 16.63671875 3.4375 13.6875 C2.50289678 9.67099372 2.50289678 9.67099372 0.91015625 5.89453125 C0 4 0 4 0 0 Z " fill="#6E1D24" transform="translate(79,248)"/>
<path d="M0 0 C-1.17314338 4.39928768 -2.0264953 6.68212226 -6 9 C-8.578125 9.29296875 -8.578125 9.29296875 -11.25 9.1875 C-12.14203125 9.16042969 -13.0340625 9.13335937 -13.953125 9.10546875 C-14.62859375 9.07066406 -15.3040625 9.03585938 -16 9 C-15.67 8.01 -15.34 7.02 -15 6 C-12.03 6 -9.06 6 -6 6 C-6.33 4.68 -6.66 3.36 -7 2 C-4.35261084 0.5393715 -3.10551666 0 0 0 Z " fill="#DB4959" transform="translate(172,66)"/>
<path d="M0 0 C5.20095986 -0.81406328 8.59191405 1.076166 12.875 3.75 C14.10321941 4.48595816 15.33238214 5.22034441 16.5625 5.953125 C17.1503125 6.30697266 17.738125 6.66082031 18.34375 7.02539062 C21.47465935 8.86775356 24.72713319 10.42902393 28 12 C25.41228112 12.98438149 24.31352461 13.12419976 21.69750977 12.08789062 C20.87049561 11.61544922 20.04348145 11.14300781 19.19140625 10.65625 C18.27939453 10.15222656 17.36738281 9.64820312 16.42773438 9.12890625 C14.52052951 8.04464663 12.61427507 6.95871349 10.70898438 5.87109375 C9.79568359 5.36707031 8.88238281 4.86304687 7.94140625 4.34375 C7.11326416 3.87130859 6.28512207 3.39886719 5.43188477 2.91210938 C2.52499608 1.82184373 0.93670628 2.13354894 -2 3 C-1.34 2.01 -0.68 1.02 0 0 Z " fill="#3E0209" transform="translate(158,107)"/>
<path d="M0 0 C7.50769231 -0.36923077 7.50769231 -0.36923077 10 1.5 C10.495 2.2425 10.495 2.2425 11 3 C10.67 3.99 10.34 4.98 10 6 C10 5.34 10 4.68 10 4 C5.97007218 4.55312735 1.97977076 5.1558062 -2 6 C-2.33 5.01 -2.66 4.02 -3 3 C-2.01 2.67 -1.02 2.34 0 2 C0 1.34 0 0.68 0 0 Z " fill="#BA1F34" transform="translate(125,10)"/>
<path d="M0 0 C0.66 0.33 1.32 0.66 2 1 C-3.75 6 -3.75 6 -6 6 C-6.33 6.99 -6.66 7.98 -7 9 C-9.1875 11.6875 -9.1875 11.6875 -12 14 C-15 14.25 -15 14.25 -18 14 C-19.67453799 14.291224 -21.34550895 14.61070799 -23 15 C-20.06427721 12.67474293 -17.07145983 10.90991417 -13.75 9.1875 C-8.79390365 6.53316115 -4.36804507 3.52948054 0 0 Z " fill="#79272D" transform="translate(192,313)"/>
<path d="M0 0 C1.20628008 2.33214148 2.1654738 4.49642139 3 7 C5.89260141 8.90412251 8.34692138 9.2825739 11.765625 9.4140625 C13.09980469 9.47207031 13.09980469 9.47207031 14.4609375 9.53125 C15.38132813 9.5621875 16.30171875 9.593125 17.25 9.625 C18.65378906 9.68300781 18.65378906 9.68300781 20.0859375 9.7421875 C22.39043054 9.83624844 24.69492013 9.92189399 27 10 C27 10.99 27 11.98 27 13 C25 14.6875 25 14.6875 23 16 C23.33 14.35 23.66 12.7 24 11 C23.12263184 11.03927612 23.12263184 11.03927612 22.22753906 11.0793457 C19.56863434 11.18349756 16.91015856 11.24837772 14.25 11.3125 C12.86941406 11.3753418 12.86941406 11.3753418 11.4609375 11.43945312 C4.63912277 11.56303673 4.63912277 11.56303673 1.375 8.6875 C-0.22798602 5.55439096 -0.32314936 3.47385562 0 0 Z " fill="#501016" transform="translate(182,272)"/>
<path d="M0 0 C1.1446875 0.495 1.1446875 0.495 2.3125 1 C4.99069135 2.17436686 4.99069135 2.17436686 8 2 C12 6.34285714 12 6.34285714 12 9 C12.78375 9.0825 13.5675 9.165 14.375 9.25 C17 10 17 10 18.3125 12.0625 C18.539375 12.701875 18.76625 13.34125 19 14 C14.67960987 12.52260227 11.44363846 10.30953519 7.8125 7.5625 C6.76707031 6.78003906 5.72164062 5.99757813 4.64453125 5.19140625 C2 3 2 3 0 0 Z " fill="#862B32" transform="translate(123,295)"/>
<path d="M0 0 C0.33 0.66 0.66 1.32 1 2 C3.31 1.34 5.62 0.68 8 0 C8.66 0.66 9.32 1.32 10 2 C9.43410156 2.26554687 8.86820313 2.53109375 8.28515625 2.8046875 C7.55167969 3.15789062 6.81820312 3.51109375 6.0625 3.875 C5.33160156 4.22304687 4.60070312 4.57109375 3.84765625 4.9296875 C1.83667541 5.8684977 1.83667541 5.8684977 1 8 C0.01 8 -0.98 8 -2 8 C-2.33 6.02 -2.66 4.04 -3 2 C-2.01 1.34 -1.02 0.68 0 0 Z " fill="#C8263A" transform="translate(101,88)"/>
<path d="M0 0 C0 3.99065846 -1.91567604 5.9705012 -4.25 9 C-5.03890625 10.051875 -5.8278125 11.10375 -6.640625 12.1875 C-8.65016151 14.58297399 -10.41102867 16.2898538 -13 18 C-13.375 15.25 -13.375 15.25 -13 12 C-10.25 9.875 -10.25 9.875 -7 8 C-4.31414187 5.54435828 -2.11359283 2.95902996 0 0 Z " fill="#762329" transform="translate(239,288)"/>
<path d="M0 0 C0.66 0.33 1.32 0.66 2 1 C1.51739376 11.52081606 -0.82781567 21.72778709 -3 32 C-3.33 32 -3.66 32 -4 32 C-3.33556363 25.60721896 -2.46606595 19.28114356 -1.4375 12.9375 C-1.29892578 12.07189453 -1.16035156 11.20628906 -1.01757812 10.31445312 C-0.68029303 8.20932889 -0.34042164 6.1046193 0 4 C-0.99 4.33 -1.98 4.66 -3 5 C-1.125 1.125 -1.125 1.125 0 0 Z " fill="#2E0106" transform="translate(245,187)"/>
<path d="M0 0 C0.66 0 1.32 0 2 0 C2.185625 1.11375 2.185625 1.11375 2.375 2.25 C2.97225826 4.87793635 3.52760474 6.75265987 5 9 C6.32520503 9.68268138 7.65812182 10.3507041 9 11 C9.33 11.99 9.66 12.98 10 14 C12.50447516 15.21869929 12.50447516 15.21869929 15 16 C14.67 16.66 14.34 17.32 14 18 C9.82611826 17.50447066 8.08460499 15.31303173 5.375 12.25 C4.59898438 11.38890625 3.82296875 10.5278125 3.0234375 9.640625 C1.07905888 7.10317336 -0.11481871 5.06168586 -1 2 C-0.67 1.34 -0.34 0.68 0 0 Z " fill="#CA4050" transform="translate(108,273)"/>
<path d="M0 0 C1.80430342 2.70645512 2.70868167 4.73978729 3.7265625 7.78125 C4.0359375 8.70550781 4.3453125 9.62976563 4.6640625 10.58203125 C5.13972656 12.02642578 5.13972656 12.02642578 5.625 13.5 C5.94984375 14.46292969 6.2746875 15.42585937 6.609375 16.41796875 C6.91617188 17.34222656 7.22296875 18.26648438 7.5390625 19.21875 C7.81959473 20.06373047 8.10012695 20.90871094 8.38916016 21.77929688 C9 24 9 24 9 27 C8.01 26.67 7.02 26.34 6 26 C4.9453125 22.8828125 4.9453125 22.8828125 4 19 C3.64679688 17.82179687 3.29359375 16.64359375 2.9296875 15.4296875 C2.58164063 14.25664062 2.23359375 13.08359375 1.875 11.875 C1.52179688 10.69679687 1.16859375 9.51859375 0.8046875 8.3046875 C0.08881294 5.36473663 -0.16991023 3.00174748 0 0 Z " fill="#450B11" transform="translate(70,221)"/>
<path d="M0 0 C0 0.99 0 1.98 0 3 C-0.928125 3.598125 -1.85625 4.19625 -2.8125 4.8125 C-6.47537082 7.32623488 -7.4889849 8.86459026 -9 13 C-9.49316876 15.67858327 -9.76549087 18.2796941 -10 21 C-10.33 21 -10.66 21 -11 21 C-11.51554714 14.01147209 -10.96146059 8.89881722 -7 3 C-4.64046906 0.64046906 -3.22104383 0.50858587 0 0 Z " fill="#9F1C2E" transform="translate(152,43)"/>
<path d="M0 0 C0 0.99 0 1.98 0 3 C-0.66 3 -1.32 3 -2 3 C-2 3.66 -2 4.32 -2 5 C-7.37305699 5.35233161 -7.37305699 5.35233161 -10 5 C-12 3 -12 3 -13 1 C-8.59085217 -0.10228696 -4.51617599 -0.07654536 0 0 Z " fill="#C74855" transform="translate(114,98)"/>
<path d="M0 0 C-1.65 0.33 -3.3 0.66 -5 1 C-4.67 1.639375 -4.34 2.27875 -4 2.9375 C-2.66943072 7.01236841 -2.83340801 10.75190425 -3 15 C-6.43772727 11.56227273 -6.97127774 7.89039016 -7.125 3.125 C-7.08375 2.09375 -7.0425 1.0625 -7 0 C-3.86650268 -1.04449911 -3.01031744 -0.93423645 0 0 Z " fill="#6D1622" transform="translate(90,226)"/>
<path d="M0 0 C6.73670593 1.39818425 12.95183463 3.68360704 19 7 C19.33 7.66 19.66 8.32 20 9 C16.28111761 8.49287967 13.26545761 7.88391785 10 6 C9.67 6.66 9.34 7.32 9 8 C8.67 7.01 8.34 6.02 8 5 C5.68191636 3.96514123 3.34824702 2.9644586 1 2 C0.67 1.34 0.34 0.68 0 0 Z " fill="#850C1F" transform="translate(198,109)"/>
<path d="M0 0 C9.24500666 0.35286285 9.24500666 0.35286285 12.1875 2.875 C13.0846875 3.926875 13.0846875 3.926875 14 5 C15.7325 5.7425 15.7325 5.7425 17.5 6.5 C20.88984396 7.95279027 22.6246227 9.24456233 25 12 C19.52437474 10.40329096 14.95159877 7.77061712 10.12304688 4.83398438 C6.76076984 2.84166031 3.89652576 1.47877916 0 1 C0 0.67 0 0.34 0 0 Z " fill="#940B22" transform="translate(157,105)"/>
<path d="M0 0 C2.875 1.5625 2.875 1.5625 5 3 C3 4 3 4 1.3125 3.5625 C-3.98626809 2.27361046 -8.06981194 2.94575498 -13 5 C-13.99 4.67 -14.98 4.34 -16 4 C-5.44754665 -2.0269941 -5.44754665 -2.0269941 0 0 Z " fill="#380109" transform="translate(165,89)"/>
<path d="M0 0 C0.66 0.33 1.32 0.66 2 1 C1.01 2.485 1.01 2.485 0 4 C0.66 4.33 1.32 4.66 2 5 C1.2575 4.9175 0.515 4.835 -0.25 4.75 C-3.85022511 5.07729319 -4.60431477 6.37971928 -7 9 C-11.39285714 12 -11.39285714 12 -15 12 C-13.06775868 10.18159615 -11.12966092 8.37025532 -9.1875 6.5625 C-8.36668945 5.7880957 -8.36668945 5.7880957 -7.52929688 4.99804688 C-5.03940058 2.68923395 -3.25924458 1.08641486 0 0 Z " fill="#CA4352" transform="translate(212,299)"/>
<path d="M0 0 C0 0.66 0 1.32 0 2 C-8.66170574 3.85479354 -17.17358581 4.54736337 -26 5 C-26 4.67 -26 4.34 -26 4 C-22.41772843 3.32754163 -18.8340249 2.66304461 -15.25 2 C-14.23421875 1.80921875 -13.2184375 1.6184375 -12.171875 1.421875 C-11.1921875 1.24140625 -10.2125 1.0609375 -9.203125 0.875 C-8.30239258 0.70742187 -7.40166016 0.53984375 -6.47363281 0.3671875 C-4 0 -4 0 0 0 Z " fill="#5C0813" transform="translate(84,124)"/>
<path d="M0 0 C-1.0625 1.9375 -1.0625 1.9375 -3 4 C-6.6875 4.75 -6.6875 4.75 -10 5 C-10 4.34 -10 3.68 -10 3 C-11.32 3 -12.64 3 -14 3 C-14 2.34 -14 1.68 -14 1 C-12.41913952 0.63495397 -10.83516093 0.28339494 -9.25 -0.0625 C-8.36828125 -0.25972656 -7.4865625 -0.45695312 -6.578125 -0.66015625 C-4.01320972 -0.99825872 -2.42908361 -0.81158635 0 0 Z " fill="#DF4F5C" transform="translate(170,331)"/>
<path d="M0 0 C4.95442666 1.16574745 8.30242333 2.30242333 12 6 C13.3125 8.75 13.3125 8.75 14 11 C10.77026656 9.52186113 8.11002902 7.68253503 5.3125 5.5 C4.52488281 4.8915625 3.73726563 4.283125 2.92578125 3.65625 C1 2 1 2 0 0 Z " fill="#7A2830" transform="translate(110,321)"/>
<path d="M0 0 C1.32 0.33 2.64 0.66 4 1 C0.67881551 2.69179335 -2.6560769 4.35361783 -6 6 C-6.83402344 6.41507813 -7.66804688 6.83015625 -8.52734375 7.2578125 C-9.30207031 7.62648437 -10.07679687 7.99515625 -10.875 8.375 C-11.57367188 8.71273437 -12.27234375 9.05046875 -12.9921875 9.3984375 C-15.3751851 10.11240954 -16.67872136 9.80151774 -19 9 C-18.25234375 8.66226563 -17.5046875 8.32453125 -16.734375 7.9765625 C-15.74953125 7.53054687 -14.7646875 7.08453125 -13.75 6.625 C-12.77546875 6.18414062 -11.8009375 5.74328125 -10.796875 5.2890625 C-9.13630833 4.52371753 -7.49148977 3.71937769 -5.890625 2.8359375 C-4 2 -4 2 0 2 C0 1.34 0 0.68 0 0 Z " fill="#8E1025" transform="translate(121,123)"/>
<path d="M0 0 C7.58954531 0.44644384 14.01639737 3.11500562 21 6 C19.1953125 7.0703125 19.1953125 7.0703125 17 8 C13.875 6.875 13.875 6.875 12.08203125 6.00390625 C9.61868902 4.81614086 7.10606996 3.81625675 4.5625 2.8125 C3.69753906 2.46832031 2.83257812 2.12414062 1.94140625 1.76953125 C1.30074219 1.51558594 0.66007813 1.26164062 0 1 C0 0.67 0 0.34 0 0 Z " fill="#8C0F23" transform="translate(224,120)"/>
<path d="M0 0 C2.25 0.0625 2.25 0.0625 5 1 C6.81701739 3.24587864 7.78041244 5.32628881 9 8 C8.67 8.66 8.34 9.32 8 10 C6.68 8.68 5.36 7.36 4 6 C3.01 6.33 2.02 6.66 1 7 C0.34 7 -0.32 7 -1 7 C-0.649375 6.21625 -0.29875 5.4325 0.0625 4.625 C0.371875 3.75875 0.68125 2.8925 1 2 C0.67 1.34 0.34 0.68 0 0 Z " fill="#A5192C" transform="translate(167,44)"/>
<path d="M0 0 C1 2 1 2 0.1796875 4.56640625 C-0.25085938 5.55511719 -0.68140625 6.54382813 -1.125 7.5625 C-1.54007813 8.55378906 -1.95515625 9.54507812 -2.3828125 10.56640625 C-4 13 -4 13 -6.6796875 13.83984375 C-7.44539062 13.89269531 -8.21109375 13.94554687 -9 14 C-7.45158425 10.65291949 -5.50894136 7.75332488 -3.375 4.75 C-2.74335938 3.85796875 -2.11171875 2.9659375 -1.4609375 2.046875 C-0.73777344 1.03367187 -0.73777344 1.03367187 0 0 Z " fill="#6C1D24" transform="translate(227,275)"/>
<path d="M0 0 C0.66 0 1.32 0 2 0 C2.29530838 6.49678438 1.17293889 12.6221448 0 19 C-0.33 19 -0.66 19 -1 19 C-1.027193 17.41676312 -1.04648306 15.83338938 -1.0625 14.25 C-1.07410156 13.36828125 -1.08570313 12.4865625 -1.09765625 11.578125 C-1.00826198 9.2181162 -0.66912821 7.25501476 0 5 C-0.99 5.33 -1.98 5.66 -3 6 C-1.125 1.125 -1.125 1.125 0 0 Z " fill="#7D0F21" transform="translate(243,191)"/>
<path d="M0 0 C0.47050781 0.40992188 0.94101563 0.81984375 1.42578125 1.2421875 C2.04839844 1.78101563 2.67101562 2.31984375 3.3125 2.875 C4.23482422 3.67550781 4.23482422 3.67550781 5.17578125 4.4921875 C7.13498212 6.1640447 7.13498212 6.1640447 10 8 C10.98515378 10.62356462 11.42238929 13.24524123 12 16 C7.49486569 11.76790414 3.485708 7.11304141 0 2 C0 1.34 0 0.68 0 0 Z " fill="#6A1C26" transform="translate(81,288)"/>
<path d="M0 0 C0.99 0 1.98 0 3 0 C2.67 2.64 2.34 5.28 2 8 C1.34 8 0.68 8 0 8 C-0.66 9.65 -1.32 11.3 -2 13 C-3.35068317 10.29863366 -2.73985317 8.86436954 -2.125 5.9375 C-1.94195312 5.03902344 -1.75890625 4.14054687 -1.5703125 3.21484375 C-1 1 -1 1 0 0 Z " fill="#C53949" transform="translate(250,260)"/>
<path d="M0 0 C3.44111986 0.42259367 6.33967541 1.17981236 9.5625 2.4375 C9.5625 3.0975 9.5625 3.7575 9.5625 4.4375 C8.97082031 4.3653125 8.37914062 4.293125 7.76953125 4.21875 C-0.6150024 2.92880935 -0.6150024 2.92880935 -8.4375 5.4375 C-5.70096077 2.12048275 -4.35057559 0.55370962 0 0 Z " fill="#8F0620" transform="translate(160.4375,90.5625)"/>
<path d="M0 0 C1 2 1 2 0.3125 4.9375 C-1.06192878 8.14450048 -2.06205603 9.23723362 -5 11 C-5.66 10.67 -6.32 10.34 -7 10 C-5.15083921 5.93184627 -3.33557632 2.9905167 0 0 Z " fill="#8C2C36" transform="translate(217,289)"/>
<path d="M0 0 C0.99 0 1.98 0 3 0 C2.46960703 4.057041 0.42356448 5.94844566 -2.4375 8.75 C-3.24058594 9.54921875 -4.04367188 10.3484375 -4.87109375 11.171875 C-7 13 -7 13 -9 13 C-9 12.34 -9 11.68 -9 11 C-8.01 10.195625 -7.02 9.39125 -6 8.5625 C-5.01 7.716875 -4.02 6.87125 -3 6 C-3 5.01 -3 4.02 -3 3 C-2.01 3 -1.02 3 0 3 C0 2.01 0 1.02 0 0 Z " fill="#78212B" transform="translate(201,287)"/>
<path d="M0 0 C1.44010481 0.25662245 2.8770687 0.53090821 4.3125 0.8125 C5.11300781 0.96332031 5.91351563 1.11414063 6.73828125 1.26953125 C9.23445587 2.07572236 10.32422106 3.02052002 12 5 C11.01 5.99 10.02 6.98 9 8 C8.67 6.35 8.34 4.7 8 3 C6.02 3.33 4.04 3.66 2 4 C1.34 2.68 0.68 1.36 0 0 Z " fill="#EB4D5E" transform="translate(143,327)"/>
<path d="M0 0 C-4.75 3 -4.75 3 -7 3 C-7 3.66 -7 4.32 -7 5 C-8.98 5.33 -10.96 5.66 -13 6 C-13 5.01 -13 4.02 -13 3 C-11.40084119 2.30093058 -9.79544955 1.61610532 -8.1875 0.9375 C-7.29417969 0.55464844 -6.40085938 0.17179687 -5.48046875 -0.22265625 C-3 -1 -3 -1 0 0 Z " fill="#760B1C" transform="translate(137,119)"/>
<path d="M0 0 C2 0.75 2 0.75 5 2.75 C1.846632 3.45074844 -0.72724974 3.75 -4 3.75 C-4 6.06 -4 8.37 -4 10.75 C-4.33 10.75 -4.66 10.75 -5 10.75 C-5.08096803 9.29257537 -5.13917774 7.83387193 -5.1875 6.375 C-5.22230469 5.56289062 -5.25710937 4.75078125 -5.29296875 3.9140625 C-5.19628906 3.19992188 -5.09960938 2.48578125 -5 1.75 C-2 -0.25 -2 -0.25 0 0 Z " fill="#AE2032" transform="translate(102,86.25)"/>
<path d="M0 0 C0.33 0.66 0.66 1.32 1 2 C2.98 2 4.96 2 7 2 C7.33 2.99 7.66 3.98 8 5 C6.68 5.33 5.36 5.66 4 6 C4.33 6.66 4.66 7.32 5 8 C3.0625 7.375 3.0625 7.375 1 6 C0.25 2.875 0.25 2.875 0 0 Z " fill="#CB3B4C" transform="translate(98,94)"/>
<path d="M0 0 C3 1 3 1 4 3 C4.04022391 5.3329866 4.04320247 7.66706666 4 10 C2 6.25 2 6.25 2 4 C-0.31 3.67 -2.62 3.34 -5 3 C-2 1 -2 1 0 0 Z " fill="#A11E30" transform="translate(114,86)"/>
<path d="M0 0 C3.0625 0.125 3.0625 0.125 5.0625 1.125 C4.7325 2.115 4.4025 3.105 4.0625 4.125 C1.7525 4.125 -0.5575 4.125 -2.9375 4.125 C-3.2675 3.135 -3.5975 2.145 -3.9375 1.125 C-2.9375 0.125 -2.9375 0.125 0 0 Z " fill="#DB4354" transform="translate(128.9375,17.875)"/>
<path d="M0 0 C0.66 0.33 1.32 0.66 2 1 C-0.97 3.97 -3.94 6.94 -7 10 C-7.99 9.67 -8.98 9.34 -10 9 C-8.71142987 7.68445979 -7.41904109 6.37265903 -6.125 5.0625 C-5.04605469 3.96615234 -5.04605469 3.96615234 -3.9453125 2.84765625 C-2 1 -2 1 0 0 Z " fill="#940F25" transform="translate(241,196)"/>
<path d="M0 0 C-5.16017278 2.98746845 -10.19834261 4.02541328 -16 5 C-15.67 4.01 -15.34 3.02 -15 2 C-13.02 2 -11.04 2 -9 2 C-9 1.34 -9 0.68 -9 0 C-3.375 -1.125 -3.375 -1.125 0 0 Z " fill="#93323C" transform="translate(184,341)"/>
<path d="M0 0 C3.94120709 0.56302958 6.7508723 1.6791945 10 4 C10 4.66 10 5.32 10 6 C10.99 6.33 11.98 6.66 13 7 C12.01 7.495 12.01 7.495 11 8 C8.3984375 6.6015625 8.3984375 6.6015625 5.375 4.625 C4.37210938 3.97789062 3.36921875 3.33078125 2.3359375 2.6640625 C1.56507812 2.11492187 0.79421875 1.56578125 0 1 C0 0.67 0 0.34 0 0 Z " fill="#5E1B20" transform="translate(124,332)"/>
<path d="M0 0 C-0.57344937 2.86724686 -0.8614515 3.8614515 -3 6 C-4.32 6 -5.64 6 -7 6 C-7 5.01 -7 4.02 -7 3 C-4.46815512 0.64276511 -3.52809907 0 0 0 Z " fill="#A53944" transform="translate(211,319)"/>
<path d="M0 0 C0.66 0.66 1.32 1.32 2 2 C1.90745656 6.16445467 1.24187812 7.72862455 -1.5625 10.875 C-2.7690625 11.926875 -2.7690625 11.926875 -4 13 C-3.45276317 9.62537285 -2.9451 7.91765 -1 5 C-0.61500109 3.34450469 -0.27206865 1.6777567 0 0 Z " fill="#CB4151" transform="translate(236,284)"/>
<path d="M0 0 C2.3431213 0.25561323 4.67843403 0.59270772 7 1 C7.33 1.66 7.66 2.32 8 3 C8.99 3.66 9.98 4.32 11 5 C10.67 5.66 10.34 6.32 10 7 C7.525 6.01 7.525 6.01 5 5 C5 4.34 5 3.68 5 3 C2.525 2.01 2.525 2.01 0 1 C0 0.67 0 0.34 0 0 Z " fill="#D74B59" transform="translate(129,333)"/>
<path d="M0 0 C1.5 1.0625 1.5 1.0625 3 3 C3.30933684 7.17604728 2.98497223 10.93698954 2 15 C1.67 15 1.34 15 1 15 C0.83240016 12.8750734 0.66594799 10.75005624 0.5 8.625 C0.4071875 7.44164062 0.314375 6.25828125 0.21875 5.0390625 C0.09804546 3.36213157 0 1.68126944 0 0 Z " fill="#D03A4A" transform="translate(80,255)"/>
<path d="M0 0 C0.33 0 0.66 0 1 0 C1.50377768 2.26999825 2.00290019 4.54103003 2.5 6.8125 C2.7784375 8.07707031 3.056875 9.34164062 3.34375 10.64453125 C4 14 4 14 4 17 C3.34 17 2.68 17 2 17 C2 14.69 2 12.38 2 10 C1.34 10 0.68 10 0 10 C0 6.7 0 3.4 0 0 Z " fill="#AD2A3C" transform="translate(63,198)"/>
<path d="M0 0 C0.99 0.495 0.99 0.495 2 1 C2 1.99 2 2.98 2 4 C3.65 3.67 5.3 3.34 7 3 C7 3.99 7 4.98 7 6 C5.68 5.67 4.36 5.34 3 5 C3.33 6.32 3.66 7.64 4 9 C0.06153846 5.67692308 0.06153846 5.67692308 -0.25 2.25 C-0.1675 1.5075 -0.085 0.765 0 0 Z " fill="#C73949" transform="translate(142,61)"/>
<path d="M0 0 C3 3 6 6 9 9 C8.67 9.66 8.34 10.32 8 11 C6.02 9.35 4.04 7.7 2 6 C1.67 6.66 1.34 7.32 1 8 C0.67 5.36 0.34 2.72 0 0 Z " fill="#5D191E" transform="translate(99,284)"/>
<path d="M0 0 C1.4370809 -0.05422947 2.87475462 -0.09289723 4.3125 -0.125 C5.11300781 -0.14820313 5.91351563 -0.17140625 6.73828125 -0.1953125 C9 0 9 0 12 2 C9.03 2 6.06 2 3 2 C3 2.66 3 3.32 3 4 C2.01 3.67 1.02 3.34 0 3 C0 2.01 0 1.02 0 0 Z " fill="#AC2130" transform="translate(148,227)"/>
<path d="M0 0 C-0.66 1.98 -1.32 3.96 -2 6 C-4.475 5.01 -4.475 5.01 -7 4 C-7 3.34 -7 2.68 -7 2 C-4.35261084 0.5393715 -3.10551666 0 0 0 Z " fill="#DD444E" transform="translate(172,66)"/>
<path d="M0 0 C0.66 0.33 1.32 0.66 2 1 C-3.75 6 -3.75 6 -6 6 C-6.33 6.99 -6.66 7.98 -7 9 C-8.32 8.67 -9.64 8.34 -11 8 C-7.37 5.36 -3.74 2.72 0 0 Z " fill="#491316" transform="translate(192,313)"/>
<path d="M0 0 C0.99 0.33 1.98 0.66 3 1 C1.86500606 4.29148243 1.00716624 4.9959869 -2.125 6.75 C-3.548125 7.36875 -3.548125 7.36875 -5 8 C-5 5 -5 5 -3.625 3.3125 C-2 2 -2 2 0 2 C0 1.34 0 0.68 0 0 Z " fill="#CB4655" transform="translate(187,298)"/>
<path d="M0 0 C3.7952131 1.49097658 5.61042731 3.75700849 8 7 C7.01 7.495 7.01 7.495 6 8 C5.34 7.67 4.68 7.34 4 7 C4 6.34 4 5.68 4 5 C3.34 5 2.68 5 2 5 C2 4.34 2 3.68 2 3 C1.34 3 0.68 3 0 3 C0 2.01 0 1.02 0 0 Z " fill="#C44050" transform="translate(101,290)"/>
<path d="M0 0 C-0.53625 0.2475 -1.0725 0.495 -1.625 0.75 C-4.56424252 2.29696975 -7.25754408 4.13014369 -10 6 C-10.66 5.67 -11.32 5.34 -12 5 C-7.81374099 0.67419902 -6.05150555 -0.13155447 0 0 Z " fill="#840A1C" transform="translate(162,106)"/>
<path d="M0 0 C0.1875 2.875 0.1875 2.875 0 6 C-0.99 6.66 -1.98 7.32 -3 8 C-2.67 6.35 -2.34 4.7 -2 3 C-2.99 3.33 -3.98 3.66 -5 4 C-5.33 3.01 -5.66 2.02 -6 1 C-4 0 -4 0 0 0 Z " fill="#C43344" transform="translate(117,92)"/>
<path d="M0 0 C4.75481646 0.57634139 7.97048212 2.55068521 12 5 C8.35839192 6.21386936 7.66834531 5.6674695 4.3125 4.0625 C3.10013672 3.49208984 3.10013672 3.49208984 1.86328125 2.91015625 C1.24839844 2.60980469 0.63351563 2.30945313 0 2 C0 1.34 0 0.68 0 0 Z " fill="#D84F5E" transform="translate(136,322)"/>
<path d="M0 0 C0.66 0 1.32 0 2 0 C0.50902342 3.7952131 -1.75700849 5.61042731 -5 8 C-5.33 7.34 -5.66 6.68 -6 6 C-5.67 5.01 -5.34 4.02 -5 3 C-3.35 2.67 -1.7 2.34 0 2 C0 1.34 0 0.68 0 0 Z " fill="#CF4456" transform="translate(197,291)"/>
<path d="M0 0 C3.08089673 2.77280706 4.68775452 5.06326356 6 9 C3.525 8.01 3.525 8.01 1 7 C0.67 4.69 0.34 2.38 0 0 Z " fill="#6C1C26" transform="translate(93,275)"/>
<path d="M0 0 C2.66666667 1.33333333 5.33333333 2.66666667 8 4 C8 4.66 8 5.32 8 6 C5.03 5.505 5.03 5.505 2 5 C2 4.34 2 3.68 2 3 C1.01 2.67 0.02 2.34 -1 2 C-0.67 1.34 -0.34 0.68 0 0 Z " fill="#DD4E5C" transform="translate(144,306)"/>
<path d="M0 0 C0.66 0.33 1.32 0.66 2 1 C1.8125 2.8125 1.8125 2.8125 1 5 C-1.5625 6.75 -1.5625 6.75 -4 8 C-3.34 6.02 -2.68 4.04 -2 2 C-1.34 2 -0.68 2 0 2 C0 1.34 0 0.68 0 0 Z " fill="#D44051" transform="translate(229,276)"/>
<path d="M0 0 C-3.60957611 3.2910841 -6.12637153 4.54663921 -11 5 C-7.17906575 1.05170128 -5.52310605 -0.1453449 0 0 Z " fill="#8C0A1F" transform="translate(135,104)"/>
<path d="M0 0 C2.0625 0.4375 2.0625 0.4375 4 1 C4.144375 1.61875 4.28875 2.2375 4.4375 2.875 C4.93152225 5.03258322 4.93152225 5.03258322 6 7 C5.01 7 4.02 7 3 7 C0.8125 4 0.8125 4 -1 1 C-0.67 0.67 -0.34 0.34 0 0 Z " fill="#E74656" transform="translate(132,297)"/>
<path d="M0 0 C1.32 0 2.64 0 4 0 C4 0.99 4 1.98 4 3 C0.04 3 -3.92 3 -8 3 C-8 2.67 -8 2.34 -8 2 C-6.865625 1.855625 -5.73125 1.71125 -4.5625 1.5625 C-1.19222799 1.38828522 -1.19222799 1.38828522 0 0 Z " fill="#C13648" transform="translate(217,264)"/>
<path d="M0 0 C0.99 0 1.98 0 3 0 C3.33 3.96 3.66 7.92 4 12 C3.34 12 2.68 12 2 12 C1.34 8.04 0.68 4.08 0 0 Z " fill="#B81F36" transform="translate(85,227)"/>
<path d="M0 0 C6.64615385 1.47692308 6.64615385 1.47692308 8.4375 4.125 C8.7159375 5.053125 8.7159375 5.053125 9 6 C5.06326356 4.68775452 2.77280706 3.08089673 0 0 Z " fill="#6C232B" transform="translate(133,303)"/>
<path d="M0 0 C1.67542976 0.28604898 3.34385343 0.61781233 5 1 C5.33 2.32 5.66 3.64 6 5 C5.01 5.495 5.01 5.495 4 6 C2 5 2 5 1 2 C0.34 1.67 -0.32 1.34 -1 1 C-0.67 0.67 -0.34 0.34 0 0 Z " fill="#DB4655" transform="translate(106,298)"/>
<path d="M0 0 C1.5 1.375 1.5 1.375 3 3 C3 3.66 3 4.32 3 5 C3.66 5 4.32 5 5 5 C5.33 6.32 5.66 7.64 6 9 C2.83884224 7.63016497 2.0072908 7.0109362 0 4 C0 2.68 0 1.36 0 0 Z " fill="#CA4051" transform="translate(82,285)"/>
<path d="M0 0 C0.66 0.33 1.32 0.66 2 1 C0.35 2.98 -1.3 4.96 -3 7 C-3.99 6.67 -4.98 6.34 -6 6 C-4 4 -2 2 0 0 Z " fill="#EC4C5E" transform="translate(186,320)"/>
<path d="M0 0 C1.32 0.66 2.64 1.32 4 2 C3.34 3.65 2.68 5.3 2 7 C0.68 6.67 -0.64 6.34 -2 6 C-1.67 5.195625 -1.34 4.39125 -1 3.5625 C0.06059041 1.30318875 0.06059041 1.30318875 0 0 Z " fill="#E64D5C" transform="translate(170,305)"/>
<path d="M0 0 C0.99 0.33 1.98 0.66 3 1 C2.75 2.875 2.75 2.875 2 5 C-0.0625 6.25 -0.0625 6.25 -2 7 C-1.125 1.125 -1.125 1.125 0 0 Z " fill="#CB404F" transform="translate(219,288)"/>
<path d="M0 0 C1.9375 0.5625 1.9375 0.5625 4 2 C4.75 5.625 4.75 5.625 5 9 C1.9083091 6.47043472 1.09068668 3.77545388 0 0 Z " fill="#CC404F" transform="translate(95,282)"/>
<path d="M0 0 C0.33 0 0.66 0 1 0 C1.12117187 0.61488281 1.24234375 1.22976563 1.3671875 1.86328125 C1.53476563 2.67152344 1.70234375 3.47976563 1.875 4.3125 C2.03742188 5.11300781 2.19984375 5.91351563 2.3671875 6.73828125 C2.94478999 9.25301118 2.94478999 9.25301118 5 12 C3.0625 11.625 3.0625 11.625 1 11 C-0.20272819 8.59454362 -0.10071472 7.05003047 -0.0625 4.375 C-0.05347656 3.55773437 -0.04445312 2.74046875 -0.03515625 1.8984375 C-0.02355469 1.27195312 -0.01195312 0.64546875 0 0 Z " fill="#C33E51" transform="translate(181,271)"/>
<path d="M0 0 C0.66 0 1.32 0 2 0 C2.144375 0.7425 2.28875 1.485 2.4375 2.25 C2.90187492 4.52027739 3.41863569 6.75759479 4 9 C1.4375 6.75 1.4375 6.75 -1 4 C-0.8125 1.6875 -0.8125 1.6875 0 0 Z " fill="#C13A49" transform="translate(108,273)"/>
<path d="M0 0 C2.61500768 2.36595933 4.38999603 4.86049226 6 8 C5.67 8.66 5.34 9.32 5 10 C1.32769295 6.92000054 0.43197635 4.7517398 0 0 Z " fill="#571519" transform="translate(87,265)"/>
<path d="M0 0 C1.32 0.33 2.64 0.66 4 1 C1.03 3.475 1.03 3.475 -2 6 C-2.99 5.34 -3.98 4.68 -5 4 C-4.01 3.67 -3.02 3.34 -2 3 C-1.34 2.01 -0.68 1.02 0 0 Z " fill="#9F192D" transform="translate(211,218)"/>
<path d="M0 0 C2.64 0 5.28 0 8 0 C7.67 0.99 7.34 1.98 7 3 C4.36 3 1.72 3 -1 3 C-0.67 2.01 -0.34 1.02 0 0 Z " fill="#E24254" transform="translate(106,98)"/>
<path d="M0 0 C0.66 1.32 1.32 2.64 2 4 C1.34 4 0.68 4 0 4 C0 4.66 0 5.32 0 6 C-1.32 5.67 -2.64 5.34 -4 5 C-3.34 4.67 -2.68 4.34 -2 4 C-0.86649466 1.98330173 -0.86649466 1.98330173 0 0 Z " fill="#F05260" transform="translate(175,337)"/>
<path d="M0 0 C2.25245881 2.68841859 3.88213958 4.64641875 5 8 C4.01 8.99 3.02 9.98 2 11 C1.855625 9.9275 1.71125 8.855 1.5625 7.75 C1.16250558 5.08337051 0.72408076 2.58600271 0 0 Z " fill="#D7404F" transform="translate(87,269)"/>
<path d="M0 0 C2.8125 -0.25 2.8125 -0.25 6 0 C7.875 2 7.875 2 9 4 C6.03 3.01 3.06 2.02 0 1 C0 0.67 0 0.34 0 0 Z " fill="#D04E5E" transform="translate(147,343)"/>
<path d="M0 0 C2.97 0.495 2.97 0.495 6 1 C6 1.99 6 2.98 6 4 C4.35 3.67 2.7 3.34 1 3 C0.67 2.01 0.34 1.02 0 0 Z " fill="#D24B58" transform="translate(122,328)"/>
<path d="M0 0 C2.31 0 4.62 0 7 0 C6.67 1.32 6.34 2.64 6 4 C3.69 3.34 1.38 2.68 -1 2 C-0.67 1.34 -0.34 0.68 0 0 Z " fill="#C93746" transform="translate(129,16)"/>
</svg>